<?xml version="1.0" encoding="utf-8"?>
<!-- Generator: Adobe Illustrator 26.0.0, SVG Export Plug-In . SVG Version: 6.00 Build 0)  -->
<svg version="1.1" id="Layer_1" xmlns="http://www.w3.org/2000/svg" xmlns:xlink="http://www.w3.org/1999/xlink" x="0px" y="0px"
	 viewBox="0 0 600 600" style="enable-background:new 0 0 600 600;" xml:space="preserve">
<style type="text/css">
	.st0{fill:#104291;}
	.st1{fill:#FFFFFF;}
	.st2{fill:#F7B726;}
</style>
<g>
	<g>
		<path class="st0" d="M430.93,192.84c0.74-0.22,1.17,0.22,1.6,0.72c6.31,7.32,12.08,15.04,17.07,23.31
			c2.69,4.45,5.18,9.03,7.59,13.63c2.1,4.02,3.99,8.15,5.94,12.26c0.38,0.79,0.91,1.71,0.8,2.49c-0.22,1.52,0.34,2.74,0.95,3.96
			c1.48,2.98,2.21,6.2,3.01,9.38c0.63,2.51,1.71,5.02,0.98,7.75c-0.06,0.23,0.28,0.8,0.5,0.84c1.16,0.2,1.32,1.13,1.41,1.97
			c0.17,1.55,0.98,3.12-0.13,4.68c-0.22,0.31-0.13,1.15,0.14,1.44c0.58,0.63,0.9,0.98,0.37,1.93c-0.24,0.44,0.5,1.56,1.79,1.33
			c-2.29,3.06-1.58,2.79,0.69,5.02c-0.99,3.56-0.88,5.07-0.31,9.17c0.26,1.88,1.41,3.87,0,5.79c0.29,1.22,0.43,2.5,0.9,3.65
			c0.4,0.99,0.8,1.85,0.1,2.82c-0.07,0.09-0.15,0.29-0.12,0.32c2.47,2.05,0.3,5.19,1.76,7.5c0.23,0.36,0.15,1.01,0.03,1.48
			c-0.52,1.99-1.63,3.97,0.06,5.94c-0.17,1.5-0.1,3.08-0.57,4.47c-0.5,1.45-0.72,2.79-0.59,4.34c0.3,3.56-0.14,7.1-0.83,10.59
			c-0.86,4.34-1.47,8.73-2.97,12.95c-0.66,1.86-0.9,3.9-1.18,5.88c-0.35,2.5-0.57,5.01-2.26,7.07c-0.22,0.27-0.37,0.71-0.36,1.06
			c0.17,3.83-1.77,7.07-2.95,10.5c-0.94,2.73-2.14,5.39-3.45,7.97c-1.6,3.16-2.69,6.53-4.18,9.73c-0.8,1.72-1.41,3.53-3.07,4.67
			c-0.2,0.14-0.39,0.37-0.47,0.59c-0.98,2.78-3.12,4.88-4.44,7.41c-1.82,3.5-4.12,6.65-6.27,9.91c-2.02,3.06-4.25,5.98-6.42,8.93
			c-0.52,0.71-1.11,1.4-1.77,1.98c-1.15,1.01-2.32,1.97-2.82,3.5c-0.11,0.34-0.37,0.68-0.65,0.93c-3.31,2.95-5.72,6.68-8.68,9.94
			c-1.02,1.12-2,2.21-3.61,2.65c-0.88,0.24-1.86,0.78-2.25,1.85c-0.44,1.21-1.6,0.99-2.58,1.22c-0.31,1.02-0.17,2.27-1.42,2.88
			c-0.44,0.21-0.86,0.6-1.11,1.02c-1.86,3.18-5.02,4.95-7.72,7.22c-3.59,3.01-7.31,5.82-11.14,8.51c-1.76,1.24-3.23,2.86-5.69,1.96
			c-0.25-0.09-0.71,0.21-0.98,0.44c-1.72,1.44-3.46,2.79-5.73,3.36c-0.92,0.23-1.63,1.27-2.55,1.57c-2.14,0.69-3.62,2.56-6.09,2.82
			c-2.05,0.21-3.72,2.09-5.96,2.23c-0.36,0.02-0.77,0.16-1.04,0.38c-2.51,2.06-5.74,2.43-8.61,3.64c-0.53,0.23-1.18,0.17-1.78,0.27
			c-0.33,0.05-0.82,0.02-0.95,0.22c-1.19,1.88-3.4,2.04-5.06,3.13l0.07-0.07c-1.84,0.41-3.81,0.4-5.42,1.59l0.08-0.07
			c-3.05,0.45-6.18,0.52-9.16,2.02c2.01,1.2,3.66-1.21,5.87,0.04c-3.02,0.59-5.68,1.22-8.37,1.61c-3.74,0.55-7.44,1.2-11.09,2.19
			c-1.29,0.35-2.73,0.14-4.1,0.23c-0.74,0.05-1.54,0.01-2.2,0.29c-0.89,0.39-1.71,0.46-2.56,0.06c-0.8-0.38-1.42-0.15-2.1,0.31
			c-1.25,0.84-2.11,0.07-2.84-0.8c-1.97,0.46-3.89,0.97-5.84,1.31c-0.71,0.13-1.5-0.15-2.25-0.24c-1.09-0.13-2-1.21-3.23-0.61
			c-0.68-0.6-1.37-1.19-2.21-1.93c-0.49,0.87-0.84,1.49-1.27,2.25c-2.57,0-5.22,0.15-7.85-0.04c-3.53-0.25-7.1-0.48-10.54-1.25
			c-3.8-0.86-7.69-1.03-11.46-1.85c-4.93-1.07-9.79-2.43-14.66-3.76c-2.56-0.7-5.1-1.53-7.6-2.41c-1.64-0.58-3.2-1.36-4.81-2.03
			c-1.63-0.68-3.27-1.35-4.92-2c-1.19-0.48-1.93-1.44-3.26-2.5c1.03-0.16,1.48-0.23,1.92-0.3c-0.7-0.82-1.65-1.25-2.81-1.2
			c-0.24-0.14-0.48-0.29-0.3-0.18c-0.19-0.06,0.09,0.03,0.37,0.12c-0.01,0.66-0.08,1.37-0.95,1.27c-0.86-0.1-1.76-0.29-2.54-0.65
			c-8.05-3.76-15.89-7.87-23-13.27c-2.01-1.53-4.13-2.91-6.2-4.35c-8.25-5.74-15.75-12.39-22.84-19.47
			c-4.18-4.18-8.33-8.46-11.79-13.32c-0.8-1.12-1.91-2.02-2.73-3.13c-1.04-1.39-2.56-2.47-2.88-4.35c-0.05-0.29-0.39-0.56-0.64-0.78
			c-0.48-0.4-1.17-0.65-1.47-1.15c-0.64-1.07-0.99-2.31-1.63-3.37c-0.62-1.04-1.96-1.47-2.38-2.77c-0.74-2.33-2.44-4.09-3.75-6.09
			c-1.6-2.43-3.21-4.85-4.64-7.37c-0.53-0.93-0.55-2.15-0.9-3.64c-1.55-0.56-2.43-2.18-3.13-3.99c-0.64-1.65-1.51-3.2-2.2-4.83
			c-0.54-1.27-0.94-2.6-1.43-3.9c-0.44-1.18-0.83-2.4-1.39-3.53c-0.5-1.01-1.24-1.92-0.51-3.11c-0.83-0.58-1.51-1.3-1.88-2.26
			c-0.31-0.82-0.82-1.69-0.78-2.51c0.09-1.76-0.75-3.17-1.29-4.71c-0.25-0.72-0.71-1.44-0.7-2.16c0.03-2.99-1.34-5.56-2.17-8.31
			c-0.46-1.52-1.11-3-0.93-4.75c0.13-1.29-0.3-2.71-0.75-3.98c-0.83-2.37-0.02-5.03-1.35-7.29c-0.12-0.21-0.19-0.51-0.14-0.73
			c0.57-2.82-0.07-5.52-0.71-8.25c-0.22-0.95,0.02-2,0.02-3.01c0-0.89,0.17-1.85-0.11-2.65c-0.9-2.61-0.52-5.26-0.39-7.89
			c0.14-2.79,0.07-5.53-0.41-8.31c-0.54-3.1-0.76-6.28-0.81-9.43c-0.05-3.16,0.26-6.33,0.44-9.49c0.33-5.6,1.71-11.03,2.79-16.5
			c0.76-3.85,1.49-7.75,2.73-11.46c2.23-6.7,3.99-13.62,8.17-19.51c0.26-0.37,0.42-0.92,0.4-1.38c-0.1-2.97,1.8-5.21,2.77-7.79
			c1.27-0.4,1.14-1.35,1.07-2.4c-0.04-0.57,0.23-1.51,0.63-1.69c1.66-0.77,1.78-2.33,2.23-3.74c0.31-0.98,0.94-1.72,1.48-2.55
			c1.64-2.55,3.14-5.23,4.35-8.01c1.33-3.05,3.1-5.8,4.98-8.49c4.1-5.84,9.09-10.91,14.11-15.94c4.75-4.76,9.68-9.34,14.51-14.01
			c5.68-5.49,12.06-10.1,18.38-14.78c3.87-2.87,7.81-5.66,11.88-8.25c8.79-5.59,18.21-9.95,27.92-13.7c3.3-1.27,6.63-2.38,10.09-3.1
			c0.85-0.18,1.78-0.06,2.61-0.3c1.45-0.43,3.35,0.69,4.37-1.26c0.08-0.15,0.49-0.25,0.69-0.19c2.15,0.67,3.99-0.49,5.87-1.11
			c1.6-0.52,3.12-0.89,4.81-0.58c0.69,0.13,1.73,0.17,2.13-0.23c1.68-1.68,3.51-0.97,5.42-0.58c2.02-1.33,4.15-2.31,6.67-2.33
			c0.75,0,1.87,0.19,2.21-0.99c0.82,0.12,1.66,0.41,2.47,0.34c9.8-0.82,9.79-0.77,17.9,0.2c3.9,0.46,7.83,0.62,11.75,0.91
			c5.43,0.4,10.84,1.05,16.17,2.21c1.48,0.32,2.99,0.54,4.49,0.78c5.63,0.93,11.06,2.6,16.53,4.17c0.91,0.26,2.03,0.34,2.38,1.6
			c0.06,0.22,0.8,0.52,0.92,0.42c1.38-1.2,2.5,0.3,3.74,0.38c1.22,0.08,2.46,0.6,3.58,1.17c3.15,1.59,6.53,2.58,9.76,3.94
			c0.79,0.33,1.51,0.85,2.28,1.26c0.76,0.41,1.51,0.91,2.33,1.14c1.12,0.31,2.15,0.55,2.7,1.79c0.21,0.48,0.96,0.96,1.5,1
			c2.85,0.19,5.12,1.68,7.49,3.04c1.21,0.7,2.14,1.72,3.21,2.48c0.92,0.65,2.31,0.85,3.35,1.6c0.93,0.67,1.81,1.29,1.47,2.74
			c-0.11,0.46,0.38,1.28,1.17,1.21c0.82-0.07,1.43,0.15,2.1,0.62c1.02,0.72,2.16,1.28,3.24,1.92c0.42,0.25,1.05,0.42,1.2,0.79
			c0.51,1.21,1.58,1.51,2.6,2.03c0.63,0.32,1.08,1,1.66,1.46c0.36,0.29,0.86,0.7,1.22,0.64c2.43-0.41,2.98,1.32,3.56,3.05
			c3.06,0.56,5.29,2.4,6.78,4.93c0.58,0.99,1.04,1.54,2.1,1.82c0.96,0.25,0.92,1.02,0.61,1.81c-0.68-0.14-1.28-0.27-1.88-0.4
			c0.04-0.54-0.23-0.77-0.75-0.77c-0.12-0.18-0.25-0.37-0.37-0.55c-0.07,0.15-0.14,0.31-0.21,0.46c0.21,0,0.42,0.01,0.64,0.01
			c-0.22,0.72,0.13,0.88,0.75,0.78c-0.25,1.38,0.66,2.31,1.26,3.53c0.51-0.1,0.97-0.19,1.63-0.32c-0.14-0.75-0.27-1.39-0.42-2.16
			c1.89,0.07,2.48,1.69,3.47,2.69c0.3,0.3,0.06,1.13,0.07,1.71l0.07-0.1c-0.28,0.02-0.55,0.04-0.83,0.07
			c-0.07-0.2-0.14-0.41-0.21-0.61c-0.1,0.12-0.21,0.24-0.31,0.36c0.2,0.06,0.39,0.12,0.59,0.18c-0.16,0.65,0,1.02,0.76,0.84
			l-0.07-0.09c0.29,1.81,0.63,2.15,2.37,2.37l-0.09-0.08c-0.06,0.63,0.22,0.91,0.85,0.85c0,0-0.08-0.08-0.08-0.08
			c0.07,0.47-0.02,1.05,0.24,1.37c1.01,1.28,2.12,2.48,3.2,3.7c0.31,0.17,0.61,0.35,0.92,0.52c0.23,0.22,0.45,0.43,0.68,0.64
			c0.01,0.01,0.24-0.23,0.23-0.23c-0.2-0.23-0.41-0.44-0.62-0.66c-0.21-0.3-0.42-0.6-0.63-0.9c-0.16-0.44-0.4-0.88-0.46-1.33
			c-0.04-0.25,0.21-0.55,0.33-0.82C430.99,192.78,430.93,192.84,430.93,192.84z M414.31,177.44c-0.09-0.02-0.18-0.04-0.28-0.07
			c0.02,0.02,0.05,0.06,0.07,0.05c0.1-0.01,0.19-0.04,0.29-0.06C414.36,177.39,414.34,177.41,414.31,177.44z M227.58,456.56
			c0.01,0.11-0.01,0.23,0.03,0.33c0.02,0.06,0.12,0.1,0.18,0.15c-0.09-0.14-0.18-0.27-0.27-0.41c-0.25-0.13-0.51-0.25-0.22-0.11
			C226.99,456.48,227.29,456.52,227.58,456.56z M219.92,452.84c-0.09-0.07-0.17-0.15-0.26-0.21c-0.04-0.03-0.11-0.01-0.17-0.01
			c0.17,0.05,0.34,0.1,0.51,0.15c0.17,1.13,0.94,0.76,1.61,0.66c0.01,1.33,0.01,1.33,1.44,1.24c-0.55-0.43-1.03-0.8-1.52-1.16
			C220.99,453.27,220.46,453.05,219.92,452.84z M399.32,166.25c-0.41-0.01-0.82-0.02-1.23-0.03c0.11,0.36,0.22,0.72,0.33,1.09
			c0.35,0.82,0.96,1.12,1.75,0.7c0.25-0.13,0.44-0.6,0.44-0.92C400.61,166.23,399.95,166.23,399.32,166.25z M440.17,206.5
			c0.01,0.29,0.01,0.59,0.02,0.88c0.17-0.04,0.33-0.07,0.5-0.11c-0.2-0.24-0.4-0.48-0.6-0.72c-1.08-2.29-1.08-2.29-3.06-3.41
			C437.73,204.88,438.21,206.35,440.17,206.5z M214.56,449.79c0.5,1.71,1.95,1.78,3.3,2.03c-0.98-0.91-1.91-1.93-3.38-1.96
			c-3.08-2.46-6.2-4.85-10.04-6.02c-0.1-0.35-0.1-0.81-0.33-1.03c-2.56-2.41-5.5-4.3-8.51-6.09c-0.22-0.28-0.4-0.59-0.66-0.82
			c-0.41-0.38-0.87-0.98-1.4-0.25c-0.09,0.13,0.38,0.74,0.67,1.05c0.24,0.25,0.6,0.38,0.91,0.57c2.29,2.52,5.32,4.06,7.99,6.08
			c0.37,0.28,0.93,0.29,1.41,0.42c2.44,2.34,5.28,4.12,8.28,5.64C213.32,449.69,213.97,449.68,214.56,449.79z M273.83,469.76
			c1.01,0.6,2.05,0.44,3.1,0.07c-1.06,0-2.12,0-3.18,0c0.18-0.29,0.36-0.85,0.53-0.84c1.88,0.04,3.76,0.14,5.64,0.28
			c1.12,0.08,2.24,0.24,3.35,0.42c0.33,0.05,0.64,0.28,1.26,0.56c-1.75,0.51-3.27-0.52-4.76,0.7c4.86,0.17,9.49,0.32,13.91,0.47
			c-1.24-0.83-3.18,1.69-4.64-0.68c0.8-0.2,1.47-0.5,2.15-0.51c0.88-0.01,1.75,0.26,2.64,0.32c0.76,0.06,1.52,0,2.28,0
			c0.89-0.01,1.78-0.01,2.66-0.01c0.64,0,1.28,0.01,1.91,0.01c-0.01,0.1-0.01,0.21-0.02,0.31c-0.59,0.2-1.19,0.4-2.21,0.74
			c0.73,0.17,0.95,0.22,1.17,0.26c2.7,0.47,5.37-0.92,8.12-0.14c0.59,0.17,1.63-0.23,2.06-0.71c0.88-0.98,1.91-1.08,3.06-1.18
			c2.78-0.25,5.55-0.57,8.32-0.88c8.21-0.92,16.22-2.81,24.14-5.09c7.56-2.17,14.95-4.82,22.09-8.16
			c8.76-4.09,17.12-8.84,24.72-14.84c1.87-1.48,4.25-2.23,5.76-4.2c0.21-0.27,0.65-0.43,1.01-0.5c2.49-0.51,4.06-2.28,5.69-4
			c0.51-0.54,1.02-1.09,1.59-1.56c2.26-1.85,4.44-3.75,5.74-6.47c0.31-0.64,1-1.08,1.49-1.64c1.88-2.18,4.42-3.77,5.86-6.36
			c0.75-1.34,1.56-2.59,2.82-3.51c0.4-0.29,0.83-0.66,1.01-1.1c1.07-2.59,3.74-4.16,4.47-6.96c0.06-0.23,0.28-0.43,0.46-0.6
			c3.26-3.24,5.5-7.14,7.27-11.34c0.39-0.92,0.89-1.83,1.49-2.63c2.62-3.46,3.72-7.74,6.13-11.31c2.31-6.29,4.69-12.55,6.4-19.04
			c0.81-3.06,1.52-6.16,2.61-9.11c0.93-2.53,1.47-5.07,1.77-7.72c0.3-2.64,0.7-5.28,1.08-7.91c0.4-2.75,1.07-5.48,1.19-8.23
			c0.32-7.46,0.6-14.92,0.03-22.38c-0.19-2.52-0.5-5.04-0.51-7.56c-0.02-4.71-0.61-9.35-1.58-13.94c-1.02-4.81-2.15-9.6-3.37-14.36
			c-0.27-1.05-1.33-1.89-1.61-2.93c-0.28-1.03,0.27-2.31-0.07-3.3c-0.86-2.47-2-4.84-3.06-7.24c-0.46-1.03-1.18-1.97-1.48-3.03
			c-0.85-3.03-2.18-5.9-3.56-8.67c-3.39-6.79-7.11-13.4-11.24-19.79c-2.9-4.5-6.49-8.44-9.68-12.7c-1.65-2.21-3.62-4.24-5.66-6.11
			c-3.04-2.8-5.86-5.83-9.22-8.29c-1.48-1.08-2.34-2.61-2.24-4.57c0.04-0.71-0.18-1.43-0.31-2.32c-3.34,0.09-5.07-2.57-7.38-4.05
			c-0.75,0.18-1.35,0.32-1.94,0.46c-3.01-2.66-6.09-5.16-10.28-5.68c-0.09-0.72-0.18-1.42-0.31-2.49c-2.2,0.51-3.41-0.65-4.24-2.39
			c-0.09-0.19-0.39-0.28-0.69-0.47c-0.66,0.13-1.39,0.28-2.22,0.45c-0.68-1.33-1.76-1.95-3.35-1.88c-0.81,0.04-1.65-0.34-2.52-0.54
			c0.25-0.45,0.4-0.74,0.66-1.21c-0.66-0.29-1.35-0.49-1.94-0.87c-0.58-0.38-1.06-0.93-1.52-1.35c-0.72,0.38-1.23,0.64-1.75,0.91
			c-0.41-0.93-0.74-1.69-1.06-2.41c-1.27,0-2.38,0-3.73,0c-0.31-0.49-0.71-1.13-0.94-1.5c-1.49,0.19-2.48,0.31-3.38,0.42
			c-0.17-0.74-0.12-1.52-0.48-1.84c-0.91-0.83-2.01-1.46-2.93-2.11c-1.08,0.6-2.33,0.26-2.79,1.52c0.79-0.36,1.03-1.16,0.4-1.43
			c-1.44-0.61-2.9-1.6-4.63-0.64c-0.51,0.28-1.24,0.47-1.78,0.34c-2-0.48-4.09-0.65-6.1-1.55c0.45-0.34,0.73-0.55,1.2-0.91
			c-0.88-0.08-1.59-0.14-2.29-0.2l0.06,0.07c-1.07-1.04-2.54-1.02-3.84-1.35c-1.96-0.49-3.98-0.84-5.99-0.96
			c-2.01-0.12-3.82-1.52-5.93-0.86c-2.46-1-5.16-0.22-7.84-1.45c0.29,0.95,0.45,1.49,0.68,2.23c-1.6-0.22-3.09-0.4-4.58-0.63
			c-1.4-0.21-3.08,0.89-4.1-0.94c-0.84,0.57-1.3,1.55-2.62,1.28c-1.32-0.28-2.74,0.16-4.05-0.54c-0.4-0.21-0.98-0.32-1.42-0.21
			c-2.53,0.62-5.36-0.04-7.6,1.83c-0.26,0.22-0.74,0.32-1.09,0.27c-1.35-0.2-2.44,0.45-3.59,0.95c-0.96,0.42-1.96,0.76-3.06,1.18
			c0.05-0.39,0.03-0.59,0.09-0.62c0.55-0.28,1.15-0.48,1.66-0.81c0.26-0.17,0.52-0.57,0.5-0.84c-0.02-0.23-0.43-0.55-0.7-0.61
			c-1.35-0.26-2.72-0.44-4.12-0.66c-0.35,0.53-0.68,1.04-1.01,1.53c-1.12,0.19-2.22,0.38-3.32,0.57c-0.25-0.4-0.5-0.81-0.88-1.43
			c-1.79,0.2-3.73,0.18-5.53,0.67c-5.37,1.45-10.78,2.77-16,4.74c-4.38,1.66-8.8,3.22-13.22,4.78c-1.79,0.63-3.67,1.01-5.41,1.72
			c-3.74,1.52-7.46,3.09-11.1,4.81c-3.64,1.72-7.54,2.95-10.53,5.61c-0.88-0.12-1.74-0.52-2.27-0.25c-0.9,0.46-1.67,1.07-2.78,0.98
			c-0.29-0.02-0.74,0.3-0.9,0.58c-0.87,1.57-2.15,2.56-3.83,3.17c-0.52,0.19-0.86,0.88-1.26,1.35c-0.31,0.37-0.53,1.01-0.91,1.11
			c-1.67,0.43-2.65,1.82-4.03,2.64c-2.42,1.43-4.54,3.2-6.45,5.25c-0.6,0.64-1.26,1.31-2.03,1.7c-1.46,0.73-3.17,1.1-3.19,3.24
			c0,0.16-0.34,0.44-0.54,0.46c-1.63,0.14-1.76,2.02-3.01,2.57c-1.18,2.46-3.2,4.22-5.08,6.09c-0.8,0.79-1.87,1.31-2.59,2.16
			c-0.77,0.92-1.18,2.14-1.9,3.11c-1.51,2.02-3.12,3.97-4.7,5.94c-0.24,0.29-0.51,0.7-0.82,0.77c-2.45,0.52-3.14,2.71-4.28,4.46
			c-0.49,0.74-0.83,1.61-1.41,2.25c-1.99,2.18-3.33,4.74-4.5,7.41c-0.66,1.51-1.35,3-2.06,4.48c-0.98,2.05-1.94,4.11-2.99,6.13
			c-1.1,2.11-2,4.29-2.64,6.58c-0.37,1.34-0.94,2.63-1.29,3.98c-0.43,1.65-1.09,3.1-2.58,3.75c0,1.48,0.32,2.84-0.07,3.94
			c-0.75,2.1-0.68,4.5-2.4,6.29c-0.51,0.53-0.75,1.76-0.52,2.48c0.6,1.88,0.1,3.5-0.6,5.15c-0.32-0.14-0.63-0.28-0.95-0.42
			c-0.9,2.27-0.85,2.28-0.3,4.34c0.04,0.14-0.02,0.43-0.09,0.44c-0.83,0.23-0.66,0.9-0.79,1.51c-0.33,1.6-0.55,3.28-1.22,4.74
			c-0.87,1.87-0.59,3.48,0.23,5.19c0.29-0.16,0.51-0.27,0.7-0.37c0.88,1.65-0.8,2.34-1.43,3.51c1.4,1.84,1.35,3.81,0.7,5.79
			c-0.45-0.21-0.89-0.55-1.03-0.46c-0.38,0.26-0.89,0.7-0.9,1.08c-0.05,2.11-0.13,4.27,1.64,5.89c-1.4,2.38-1.38,2.37-0.17,5.05
			c0.25,0.56,0.42,1.2,0.44,1.81c0.12,2.78,0.17,5.57,0.25,8.35c0.03,1.13-0.17,2.33,0.13,3.39c1.27,4.54,1.36,9.26,2.19,13.87
			c0.33,1.83,0.08,3.71,1.53,5.22c0.29,0.3,0.26,0.94,0.3,1.43c0.37,4.33,1.74,8.43,3.14,12.49c1.31,3.8,2.34,7.71,4.26,11.33
			c1.53,2.87,2.51,6.03,3.79,9.03c0.18,0.42,0.6,0.9,1,1.01c1.47,0.41,2.03,1.64,2.25,2.83c0.49,2.6,2.07,4.52,3.5,6.59
			c2.13,3.1,3.97,6.41,6.16,9.47c3.75,5.26,7.56,10.5,12.06,15.17c3.7,3.83,7.43,7.63,11.24,11.35c2,1.94,4.29,3.58,6.29,5.52
			c1.7,1.65,3.09,3.63,5.46,4.43c0.82,1.61,2.61,1.92,3.9,2.9c0.5,0.38,1.09,0.66,1.57,1.07c2.27,1.98,4.62,3.8,7.55,4.71
			c0.47,0.15,0.87,0.51,1.31,0.76c4.73,2.68,9.43,5.43,14.43,7.58c4.08,1.75,8.21,3.38,12.31,5.07c0.94,0.39,1.9,0.74,2.76,1.25
			c3.12,1.87,5.08,2.51,8.62,2.85c0.99,0.09,1.96,0.46,2.81,0.66c0.21,0.39,0.39,0.59,0.44,0.83c0.11,0.51,0.2,1.07,0.89,0.8
			c0.24-0.09,0.35-0.55,0.61-0.99c3.38,0.68,6.83,1.33,10.26,2.08c0.84,0.18,1.61,0.65,2.41,0.99c-0.09,0.2-0.16,0.42-0.28,0.6
			c-0.05,0.08-0.25,0.04-0.35,0.11c-0.07,0.06-0.08,0.2-0.08,0.21C271.15,469.41,272.49,469.59,273.83,469.76z M242.9,143.25
			c-0.64-1.07-1.42-1.2-2.03-0.64c-1.46,1.31-3.85,1.37-4.67,3.51c-0.02,0.05-0.25,0.07-0.36,0.04c-0.95-0.23-1.69,0.22-1.07,1.02
			c0.51,0.66,0.91-0.33,1.2-0.86c0.09-0.17,0.43-0.34,0.6-0.29c1.79,0.47,1.97-1.16,2.7-2.03
			C240.45,143.76,241.62,143.52,242.9,143.25z M351.06,144.04c-1.49-1.65-4.81-2.55-8.81-2.36c0.36,0.07,0.84-0.08,1.07,0.1
			c0.36,0.29,0.47,1.05,0.83,1.17C346.37,143.67,348.58,144.51,351.06,144.04z M262.1,140.81c-0.04,0.01-0.15,0.04-0.27,0.07
			c0.25-0.03,0.49-0.06,0.74-0.08c1.18-0.07,2.54,0.44,3.33-0.99C264.33,138.95,263.33,140.15,262.1,140.81z M379.66,154.39
			c-0.55-0.4-0.83-0.65-1.15-0.83c-0.57-0.32-1.32-0.56-1.63,0.1c-0.2,0.42,0.03,1.27,0.37,1.67c0.34,0.41,1.06,0.5,1.72,0.78
			C379.2,155.51,379.38,155.07,379.66,154.39z M358.23,145.1c-1.59,0.07-2.42-0.61-3.54-0.02
			C355.66,145.13,356.35,146.43,358.23,145.1z M401.71,168.78c0.02,1.05,0.5,1.55,1.72,1.65
			C403.29,169.4,402.95,168.77,401.71,168.78z M227.92,150.56c-0.2-0.21-0.38-0.52-0.5-0.5c-0.31,0.06-0.6,0.27-0.89,0.41
			c0.14,0.16,0.31,0.46,0.43,0.44C227.28,150.88,227.58,150.7,227.92,150.56z M434.51,199.84c0.24-1.38-0.5-1.87-1.09-2.39
			c-0.16-0.14-0.54-0.02-1.29-0.02C433.08,198.39,433.69,199.01,434.51,199.84z M136.28,318.78c0.14-0.22,0.56-0.6,0.52-0.92
			c-0.04-0.33-0.48-0.75-0.83-0.86c-0.61-0.19-0.85,0.27-0.74,0.82C135.31,318.23,135.28,318.81,136.28,318.78z M408.7,173.6
			c-0.15,0.28-0.37,0.55-0.31,0.62c0.21,0.27,0.5,0.48,0.76,0.72c0.13-0.27,0.42-0.62,0.34-0.8
			C409.38,173.89,408.98,173.78,408.7,173.6z M263.58,469.91c0,0.08,0,0.17,0,0.25c0.55,0,1.11,0,1.66,0c0-0.08,0-0.17,0-0.25
			C264.69,469.91,264.13,469.91,263.58,469.91z M267.19,468.47C266.61,468.53,266.9,468.5,267.19,468.47
			C266.9,468.51,266.61,468.55,267.19,468.47z M263.11,467.49c-0.02,0.11-0.04,0.22-0.07,0.33c0.36,0.05,0.71,0.12,1.07,0.15
			c0.1,0.01,0.21-0.12,0.32-0.19C263.99,467.68,263.55,467.59,263.11,467.49z M195.1,461.04c-0.19-0.1-0.38-0.2-0.57-0.31
			c-0.01,0.14-0.08,0.35-0.02,0.4c0.15,0.11,0.36,0.14,0.55,0.21C195.07,461.24,195.09,461.14,195.1,461.04z"/>
		<path class="st0" d="M86.56,261.92c1.15,0.57,2.36,1.17,3.79,1.88c-0.38,2.14-0.73,4.22-1.12,6.29
			c-1.87,9.86-3.22,19.79-3.79,29.82c-0.56,9.91-0.45,19.79,0.38,29.67c1.13,13.42,3.41,26.64,7.06,39.63
			c6.19,22.04,15.62,42.61,28.36,61.59c10.37,15.45,22.54,29.37,36.66,41.59c9.63,8.33,19.82,15.85,30.75,22.35
			c13.89,8.26,28.53,14.92,43.94,19.85c9.32,2.98,18.81,5.28,28.44,6.97c13.78,2.43,27.66,3.39,41.65,3.17
			c10.94-0.17,21.79-1.29,32.55-3.16c13.65-2.38,26.92-6.19,39.84-11.21c15.44-5.99,29.98-13.69,43.62-23.07
			c8.79-6.05,17.08-12.74,24.84-20.08c8.88-8.39,17.1-17.36,24.39-27.17c7.82-10.51,14.75-21.58,20.51-33.37
			c5.52-11.31,10.07-22.98,13.56-35.09c3.42-11.87,5.83-23.92,7.24-36.17c1.34-11.63,1.55-23.3,0.99-34.99
			c-0.77-16.06-3.55-31.78-7.94-47.23c-0.14-0.48-0.23-0.97-0.32-1.47c-0.02-0.11,0.04-0.24,0.1-0.54c1.32,0,2.67,0,4.07,0
			c1.69,3.73,2.38,7.62,3.23,11.43c2.04,9.17,3.58,18.43,4.49,27.79c1.81,18.67,1.21,37.26-1.82,55.79
			c-2.43,14.83-6.31,29.25-11.75,43.24c-5.26,13.52-11.87,26.35-19.63,38.62c-6.2,9.79-13.24,18.93-20.83,27.64
			c-3.33,3.82-7.04,7.31-10.57,10.96c-6,6.22-12.65,11.72-19.49,16.96c-9.17,7.02-18.82,13.32-29,18.83
			c-8.72,4.72-17.7,8.8-26.95,12.3c-12.59,4.78-25.54,8.29-38.81,10.61c-7.25,1.27-14.54,2.3-21.87,2.78
			c-7.33,0.48-14.67,0.7-22.03,0.48c-14.38-0.43-28.57-2.25-42.56-5.54c-13.23-3.11-26.05-7.46-38.5-12.94
			c-12.7-5.6-24.71-12.42-36.11-20.3c-9.41-6.51-18.23-13.78-26.48-21.71c-8.53-8.2-16.44-16.96-23.48-26.47
			c-10.45-14.13-19.23-29.22-26.15-45.42c-6.72-15.74-11.36-32.04-14.3-48.85c-1.23-7-1.93-14.06-2.46-21.15
			c-0.53-6.98-0.76-13.96-0.55-20.94c0.44-14.38,2.27-28.59,5.43-42.63C85.97,262.46,86.23,262.3,86.56,261.92z"/>
		<path class="st0" d="M375.14,107.73c1.69-3.81,3.15-7.18,4.67-10.52c1.46-3.22,2.98-6.42,4.49-9.66c-0.27-0.34-0.45-0.67-0.72-0.9
			c-0.93-0.79-1.03-1.74-0.47-2.72c0.88-1.53,1.84-3.01,2.71-4.42c1.77-0.58,3.22,0.11,4.63,0.51c5.99,1.7,11.67,4.2,17.19,7.07
			c3.54,1.84,6.44,4.5,9.2,7.3c2.74,2.77,3.51,6.1,2.07,9.81c-1.37,3.54-3.61,6.09-7.69,6.39c-0.25,0.02-0.5,0.05-0.75,0.11
			c-0.1,0.02-0.19,0.13-0.29,0.19c-0.34,0.57,0.05,0.87,0.4,1.25c0.77,0.84,1.54,1.68,2.23,2.59c2.62,3.41,2.94,8.76-2,12.35
			c-2.17,1.58-4.59,2.51-7.42,2.51c-6.19,0-12.02-1.68-17.83-3.49c-2.78-0.86-5.5-1.88-8.25-2.83c-2.8-0.96-5.16-2.67-7.46-4.46
			c-1.16-0.9-1.33-2.08-0.74-3.41c0.78-1.73,1.61-3.43,2.31-5.2C372.11,108.49,373.26,107.56,375.14,107.73z M390.7,117.14
			c1.87-0.23,3.47-0.34,5.04-0.62c3.19-0.57,4.06-2.96,2.04-5.49c-0.81-1.01-1.81-1.82-3.1-1.96c-0.5-0.06-1.38,0.33-1.53,0.73
			C392.27,112.11,391.56,114.49,390.7,117.14z M396.54,101.54c2.02,0.72,3.59,0.58,5.15-0.11c3.19-1.41,3.58-3.17,1.27-5.73
			c-0.25-0.28-0.47-0.59-0.75-0.84c-1.35-1.23-2.95-0.94-3.61,0.74C397.85,97.45,397.28,99.37,396.54,101.54z"/>
		<path class="st0" d="M110.33,172.16c-1.66,2.92-3.21,5.64-4.82,8.46c-0.71,0.1-1.46,0.15-2.18,0.34c-0.6,0.16-1.19,0.42-1.72,0.74
			c-0.67,0.4-0.86,1.45-0.38,1.99c0.45,0.51,1.03,0.77,1.69,0.44c0.45-0.22,0.86-0.53,1.25-0.84c1.08-0.88,2.13-1.81,3.22-2.67
			c2.93-2.32,6.24-3.92,9.91-4.51c5.43-0.88,9.8,1.15,12.61,6.34c3.91,7.23,2.74,15.47-2.86,20.99c-2.8,2.76-5.4,5.69-7.73,8.86
			c-0.45,0.61-0.92,1.22-1.48,1.73c-2.36,2.19-3.24,2.19-5.87,0.16c-1.51-1.16-3.02-2.3-4.08-3.94c-0.82-1.28-1.11-2.55-0.15-3.88
			c1.48-2.05,2.95-4.1,4.46-6.13c0.49-0.66,1.25-0.85,2.05-0.69c0.5,0.1,0.97,0.28,1.46,0.42c2.49,0.66,4.17-0.78,3.91-3.34
			c-0.12-1.18-1.27-2.18-2.72-2.17c-2.6,0.02-4.98,0.75-7,2.48c-1.25,1.07-2.53,2.11-3.84,3.11c-2.77,2.11-5.81,2.86-9.28,2.1
			c-1.71-0.37-2.98-1.34-4.27-2.35c-4.82-3.74-6.45-8.61-4.95-14.5c0.31-1.22,0.73-2.44,1.29-3.57c2.4-4.82,5.7-8.97,9.66-12.6
			c0.56-0.51,1.19-0.97,1.87-1.29c1.83-0.86,3.65-0.96,5.32,0.45C107.15,169.49,108.6,170.7,110.33,172.16z"/>
		<path class="st0" d="M295.15,98.97c-0.24-2.73-0.41-5-0.67-7.26c-0.15-1.3-0.62-2.45-1.98-3.02c-1.4-0.59-2.66,0.06-2.68,1.57
			c-0.04,2.41,0.02,4.82,0.13,7.23c0.07,1.38,0.12,2.8,1.87,3.38c0.39,0.13,0.72,1.06,0.72,1.62c-0.01,1.77-0.13,3.54-0.32,5.3
			c-0.14,1.31-0.63,1.77-1.99,1.84c-2.65,0.14-5.31,0.24-7.96,0.24c-2.63,0-5.27-0.14-8.14-0.23c-1.55-3.11-1.08-6.31,0.02-9.45
			c0.24-0.69,1.27-1.1,1.93-1.63c0-2.03,0.19-4.07-0.04-6.07c-0.46-4.05-0.7-8.09-0.57-12.15c0.02-0.76,0-1.53-0.09-2.28
			c-0.15-1.29-0.27-2.66-2.21-2.5c-0.22-2.78-0.3-5.27,0.07-7.7c3.64-1.7,10.46-2.25,14.69-1.18c1.19,4.03,1.16,8.33,1.57,12.72
			c0.72-0.24,1.14-0.27,1.37-0.48c2.24-2.04,5.06-2.3,7.84-2.35c2.77-0.06,4.92,1.09,6.78,3.42c2.36,2.96,3.06,6.33,3.58,9.83
			c0.31,2.13,0.36,4.29,0.47,6.45c0.07,1.26-0.07,2.53,1.3,3.34c0.32,0.19,0.45,0.89,0.46,1.36c0.05,2.27,0.02,4.54,0.02,6.93
			c-1.02,0.35-1.81,0.8-2.64,0.86c-4.04,0.33-8.08,0.59-12.12,0.78c-1.1,0.05-2.31,0.15-3.48-1.06c-0.12-1.97-0.25-4.23-0.39-6.49
			C292.6,100.34,293.24,99.26,295.15,98.97z"/>
		<path class="st0" d="M471.11,166.97c-4.39-2.56-7.48-6.56-11.63-9.55c-0.78,1.09-0.53,1.93,0.08,2.77
			c1.94,2.68,3.99,5.26,6.78,7.13c1.07,0.72,2.09,1.44,2.57,2.95c-1.05,2.75-3.46,4.22-6.15,4.89c-2.85,0.71-5.75,0.38-8.39-1.33
			c-4.08-2.65-6.99-6.28-8.83-10.69c-3.33-7.97-0.36-13.83,4.72-18.03c2.93-2.43,6.37-4.11,10.15-4.99
			c5.28-1.23,9.75,0.22,13.62,3.84c0.55,0.51,1.04,1.14,1.38,1.81c1.66,3.32,2.83,6.81,2.69,10.56c-0.05,1.35-0.44,2.79-1.05,4
			C475.7,163.03,474.08,165.6,471.11,166.97z M468.74,154.2c0.62-3.59,0.45-4.19-1.23-4.98c-1.81-0.85-3.03-0.52-4.6,1.09
			C464.71,151.52,466.55,152.74,468.74,154.2z"/>
		<path class="st0" d="M133.34,161.81c-1.29,0.69-2.04,1.84-2.71,3.08c-0.42,0.78-0.84,1.56-1.26,2.35
			c-1.7,3.24-2.83,3.42-5.28,0.83c-0.17-0.18-0.33-0.38-0.49-0.58c-1.17-1.49-2.34-2.98-3.55-4.52c0.09-2.25,0.9-4.16,2.46-5.8
			c2.36-2.47,4.57-5.09,7.04-7.44c2.46-2.33,5.47-3.64,8.94-3.64c3.02,0,5.7,0.71,7.87,3.08c2.04,2.24,4.32,4.26,6.49,6.38
			c1.01-0.16,2.03-0.6,2.9-0.39c0.92,0.21,1.78,0.94,2.51,1.62c0.92,0.86,1.72,1.86,2.48,2.87c0.67,0.89,0.7,1.92,0.01,2.83
			c-2.15,2.83-4.29,5.66-6.52,8.41c-1.07,1.32-1.58,1.29-4.19,0.53c-0.36,1.16-0.68,2.35-1.09,3.49c-1.47,4.03-6.19,6.61-10.04,5.83
			c-2.87-0.58-5.18-1.8-6.09-4.94c-0.8-2.73-1.13-5.51-0.69-8.26c0.27-1.7,1.26-3.28,1.93-4.91c0.35-0.36,0.79-0.76,0.22-1.21
			C134.15,161.32,133.66,161.67,133.34,161.81z M140.68,165.31c-0.04,0.79-0.14,1.42-0.1,2.04c0.05,0.78,0.3,1.55,1.16,1.76
			c0.9,0.22,1.77,0.01,2.39-0.74c1.19-1.46,1.58-3.03,0.66-4.87C143.43,164.1,142.2,164.64,140.68,165.31z"/>
		<path class="st0" d="M170.18,130.57c-1.6,0.06-2.69-0.52-3.39-1.96c-0.93-1.92-2.08-3.73-3.11-5.54c2.51-3.49,8.2-7.88,12.05-9.27
			c2.44,1,3.45,3.41,4.79,5.5c0.17,0.26,0.17,0.85-0.01,1.07c-1.2,1.47-0.5,2.81,0.15,4.2c2.49,5.29,3.73,11.01,5.65,16.5
			c0.16,0.47,0.18,0.99,0.32,1.76c-1.23,1.11-2.45,2.38-3.83,3.44c-2.8,2.16-5.71,4.18-8.52,6.33c-0.83,0.63-1.65,0.72-2.46,0.29
			c-1.89-1.01-3.82-1.98-5.54-3.24c-3.46-2.54-6.8-5.25-10.18-7.89c-0.39-0.31-0.8-0.59-1.29-0.95c-0.81,0.27-1.61,0.54-2.55,0.86
			c-1.87-2.48-3.47-5-4.66-7.97c0.66-0.62,1.2-1.43,1.95-1.76c2.5-1.13,4.27-3.14,6.25-4.89c1.23-1.09,2.47-2.19,3.82-3.11
			c1.25-0.85,2.43-0.57,3.31,0.68c0.87,1.24,1.66,2.55,2.39,3.88c0.78,1.43,0.79,2.9-0.28,4.37c2.5,2.11,3.82,5.48,7.47,6.08
			c0.11-0.28,0.33-0.55,0.27-0.73C171.94,135.7,171.08,133.2,170.18,130.57z"/>
		<path class="st0" d="M440.67,144.51c-0.64,2.64-1.22,5.05-1.83,7.59c-1.62-1.26-3.54-1.64-5.55-2.01
			c-6.2-1.16-11.55-4.02-14.95-9.5c-3.44-5.55-3.49-13.36,0.89-18.88c3.53-4.45,8.01-5.88,13.4-5.42c3.07,0.26,5.95,0.89,8.6,2.65
			c3.11,2.06,5.36,4.68,6.3,8.27c0.54,2.07,0.76,4.24,0.92,6.37c0.22,3.05-1.52,5.24-3.59,7.18c-0.73,0.69-1.69,0.59-2.51,0.2
			c-1.14-0.54-2.24-1.17-3.3-1.86c-2.33-1.52-4.62-3.1-6.94-4.65c-0.63-0.42-1.27-0.83-1.93-1.21c-0.58-0.34-1.28-0.49-1.68,0.14
			c-0.3,0.47-0.55,1.22-0.4,1.71c0.74,2.37,2.14,4.36,4.24,5.66c1.71,1.05,3.61,1.79,5.45,2.63
			C438.68,143.79,439.61,144.1,440.67,144.51z M432.45,127.2c2.28,1.52,3.81,2.94,6,3.2c0.59-1.47,0.25-2.47-0.81-3.2
			C436.21,126.22,434.72,126,432.45,127.2z"/>
		<path class="st0" d="M204.59,119.38c0.44,1.33,1.22,1.82,2.37,1.48c4.24-1.24,8.56-2.32,12.04-5.3c0.08-0.07,0.25-0.05,0.51-0.09
			c1.38,1.43,2.18,3.3,3.01,5.13c0.58,1.27,0.26,2.52-0.71,3.51c-3.62,3.69-7.73,6.71-12.87,7.68c-3.49,0.66-7.19,0.66-10.47-0.9
			c-3.76-1.78-6.69-4.62-8.04-8.72c-0.97-2.92-1.3-5.98-1.13-9.03c0.17-3,1.3-5.66,3.83-7.56c1.11-0.84,2.12-1.83,3.23-2.66
			c7.94-5.97,18.18-2.29,22.15,4.56c0.25,0.44,0.5,0.89,0.68,1.36c0.48,1.29,0.17,2.47-0.9,3.39c-1.84,1.59-3.94,2.76-6.18,3.67
			c-1.88,0.76-3.76,1.53-5.61,2.35C205.82,118.55,205.22,119,204.59,119.38z M200.78,113.5c2.04-1.32,3.66-1.97,4.77-3.59
			c-1-1.06-1.92-1.96-3.31-1.16c-0.6,0.35-1.19,1.02-1.41,1.68C200.59,111.16,200.78,112.04,200.78,113.5z"/>
		<path class="st0" d="M330.45,97.39c-0.32,1.75,0.43,2.88,1.79,3.48c1.25,0.56,2.62,1.04,3.96,1.16c2.64,0.24,5.3,0.19,7.96,0.27
			c0.85,0.02,1.7,0.06,2.57,0.1c0.7,1.52,0.53,2.97,0.22,4.26c-0.39,1.63-1.45,3-3.18,3.5c-4.53,1.32-9.13,2.24-13.85,1.12
			c-5.61-1.34-9.37-4.76-11.23-10.25c-0.04-0.12-0.08-0.24-0.13-0.36c-2.26-5.44-0.58-10.15,2.72-14.53
			c0.83-1.11,1.75-2.18,2.76-3.13c2.53-2.37,5.68-3.27,9.06-3.36c8.34-0.22,12.86,4.43,14.87,11.01c0.58,1.89,0.43,3.76-0.09,5.61
			c-0.43,1.5-1.19,2.17-2.72,2.1c-2.53-0.12-5.05-0.36-7.57-0.58c-1.89-0.16-3.78-0.38-5.67-0.54
			C331.45,97.21,330.97,97.33,330.45,97.39z M330.72,90.36c2.37,0.14,4.56,0.27,6.72-0.08c0.39-1.26-0.1-2.12-0.88-2.78
			c-0.56-0.46-1.26-0.95-1.94-1.02c-0.68-0.07-1.5,0.22-2.09,0.61C331.46,87.8,330.88,88.88,330.72,90.36z"/>
		<path class="st0" d="M245.05,95.25c-0.19-0.05-0.66-0.19-1.13-0.27c-1.17-0.18-1.76-0.9-1.92-2.02c-0.29-2.13-0.57-4.26-0.88-6.61
			c0.68-0.6,1.42-1.25,2.35-2.07c0-1.31,0-2.81,0-4.43c0.88-0.4,1.63-0.9,2.45-1.09c2.71-0.63,5.43-1.18,8.17-1.68
			c0.57-0.11,1.21,0.11,1.97,0.19c0.26,1.33,0.5,2.52,0.72,3.64c1.19,0.77,2.32,0.51,3.43,0.34c0.98-0.15,1.94-0.35,2.97-0.54
			c1.79,2.98,1.48,6.24,2.71,9.32c-2.19,0.57-3.97,1.04-5.86,1.53c0,3.76,1.2,7.06,2.18,10.37c2.04,0.86,4.23-0.46,6.31,1.05
			c0.39,2.12,0.84,4.47,1.26,6.82c0.17,0.97-0.19,1.81-0.94,2.35c-1.23,0.87-2.47,1.88-3.86,2.34c-2.14,0.71-4.4,1.28-6.64,1.41
			c-3.39,0.2-6.2-1.26-7.94-4.26c-1.01-1.74-1.96-3.57-2.55-5.48C246.79,102.64,246.01,99.05,245.05,95.25z"/>
		<path class="st0" d="M491.5,181.72c0.4,1.33,0.8,2.66,1.21,3.99c1.03,3.29,0.57,6.25-1.85,8.81c-0.52,0.55-1.03,1.12-1.56,1.67
			c-3,3.09-6.44,3.69-10.68,1c-3.66-2.33-6.68-5.41-8.67-9.36c-0.4-0.79-0.76-1.61-1.26-2.33c-2.47-3.59-0.79-6.89,1.85-9.01
			c0.29-0.24,0.63-0.42,0.96-0.61c1.48-0.83,2.28-0.84,3.39,0.38c1.27,1.4,2.38,2.95,3.49,4.49c0.84,1.16,0.88,2.34-0.24,3.43
			c-0.25,0.24-0.38,0.61-0.63,1.03c0.92,1.44,1.99,2.64,3.65,3.13c0.4,0.12,0.98-0.1,1.35-0.35c0.2-0.14,0.26-0.72,0.16-1.03
			c-0.6-1.94-1.39-3.82-1.86-5.78c-0.59-2.46-1.17-4.96-1.34-7.47c-0.35-5.2,4.51-9.24,9.5-7.96c1.56,0.4,3.16,1.08,4.46,2.02
			c4.92,3.6,8.66,8.13,10.51,14.27c-1.54,2.27-3.31,4.3-6.3,5.35c-1.19-1.33-2.36-2.64-3.54-3.94c-0.67-0.74-1.35-1.47-2.03-2.2
			c0.16-0.97,0.37-1.94,0.47-2.91c0.07-0.72-0.36-1.13-1.25-1.15C490.53,178.71,490.91,180.21,491.5,181.72z"/>
		<path class="st0" d="M90.84,246.29c-0.85,1.18-1.27,1.99-1.9,2.59c-1.92,1.83-4.87,1.43-6.15-0.9c-0.53-0.96-0.78-2.13-0.89-3.23
			c-0.12-1.12,0.01-2.28,0.16-3.41c0.13-1,0.43-1.98,0.72-3.22c-0.86-0.17-1.66-0.35-2.46-0.48c-2.19-0.36-3.44-1.52-3.77-3.62
			c-0.62-4.03,1.25-7.09,4.94-8.36c1.52-0.52,3.19-0.62,5.08-0.96c-0.11-1.63-0.3-3.35-0.31-5.07c-0.01-2.65,1.57-4.6,4.08-5.24
			c2.14-0.54,3.75,0.05,4.87,1.95c0.56,0.96,0.89,2.05,1.37,3.2c1.07-0.25,2.02-0.55,2.99-0.68c2.11-0.28,3.38,0.66,3.84,2.75
			c0.36,1.65,0.29,3.29-0.42,4.84c-0.42,0.91-0.88,1.79-1.43,2.9c0.89,0.62,1.7,1.15,2.47,1.74c2.04,1.56,2.48,3.92,0.88,6
			c-0.9,1.16-2.19,2.04-3.35,2.98c-0.48,0.39-1.08,0.63-1.65,0.95c0.14,1.25,0.45,2.47,0.37,3.66c-0.17,2.79-2.73,4.98-5.36,4.61
			c-0.83-0.12-1.69-0.54-2.39-1.02C91.95,247.87,91.56,247.16,90.84,246.29z M88.85,230.13c-0.2,1.13-0.5,2.11-0.52,3.1
			c-0.04,2.27,0.72,4.23,2.64,5.59c0.85,0.6,1.69,0.51,2.42-0.13c1.64-1.45,2.56-4.4,0.47-6.39c-0.64-0.61-1.29-1.22-1.87-1.89
			C91.16,229.43,90.2,229.78,88.85,230.13z M81.36,234.51c1.48-0.76,2.83-1.44,4.16-2.14c0.32-0.17,0.74-0.36,0.87-0.64
			c0.58-1.33,1.49-2.58,1.37-4.22c-2.22-0.56-4.14-0.16-5.93,0.93c-1.38,0.84-2.19,2.06-2.24,3.73
			C79.56,233.29,79.99,234.1,81.36,234.51z M85.97,236.11c-0.34,0.09-0.53,0.08-0.57,0.15c-1.79,2.88-1.4,6.01-1.04,9.13
			c0.01,0.12,0.1,0.23,0.15,0.34c0.64,1.46,2,1.64,2.91,0.37c0.98-1.38,1.93-2.78,2.95-4.25C87.96,240.65,87.09,238.22,85.97,236.11
			z M92.19,226.18c1.16-2.53,1.33-4.89,0.79-7.29c-0.16-0.72-0.46-1.47-1.34-1.69c-0.99-0.25-1.77,0.2-2.33,0.9
			c-0.37,0.46-0.65,1.1-0.71,1.69c-0.24,2.14-0.23,4.28,0.86,6.39C90.32,226.18,91.17,226.18,92.19,226.18z M96.58,230.14
			c0.82-1.03,1.64-1.84,2.19-2.81c0.74-1.3,1.39-2.67,1.84-4.09c0.35-1.1-0.72-1.88-1.87-1.56c-1.32,0.36-2.22,1.12-2.6,2.48
			c-0.3,1.09-0.6,2.2-1,3.26C94.62,228.79,95.18,229.56,96.58,230.14z M97.61,238.96c1.48,0.61,2.52,0.03,3.29-0.76
			c0.85-0.86,1.5-1.96,2.08-3.03c0.16-0.29-0.1-1.08-0.41-1.29c-1.29-0.87-2.63-1.82-4.27-1.19
			C98.07,234.85,97.85,236.8,97.61,238.96z M90.98,242.45c0.03,1.82,1.16,2.97,2.36,4.05c0.76,0.68,2.03,0.73,2.78,0.25
			c0.96-0.61,1.47-1.85,1.15-2.93c-0.33-1.12-1.02-1.98-1.92-2.52C93.87,241.68,92.46,242.06,90.98,242.45z"/>
		<path class="st0" d="M491.93,216.23c0-2.15-0.06-3.91,0.02-5.67c0.09-1.95,1.12-3.31,2.88-4.14c2.23-1.04,4.75-0.44,5.92,1.73
			c0.88,1.64,1.32,3.52,2.06,5.57c0.5-0.04,1.2-0.13,1.9-0.14c1.26-0.02,2.56-0.17,3.78,0.05c3.01,0.54,4.48,3.04,3.52,5.95
			c-0.81,2.47-2.04,4.64-4.85,5.36c-0.59,0.15-1.14,0.48-1.8,0.77c0.48,1.58,0.96,2.99,1.33,4.43c1.26,4.91-1.72,8.02-6.66,6.93
			c-0.84-0.19-1.61-0.67-2.68-1.13c-1.26,0.69-2.74,1.62-4.62,1.42c-3.04-0.33-4.6-2.04-4.32-5.04c0.09-1,0.36-1.99,0.49-2.99
			c0.09-0.62,0.08-1.25,0.13-2.11c-1.33-0.09-2.57-0.13-3.8-0.27c-1.39-0.15-2.75-0.4-3.89-1.33c-1.09-0.89-1.52-1.99-1.26-3.36
			c0.24-1.29,0.84-2.39,1.87-3.22c2.12-1.7,4.45-2.87,7.26-2.82C490.04,216.25,490.92,216.23,491.93,216.23z M497.32,217.83
			c-2.68,2.59-2.69,5.29-2.38,8.17c1.08,0.23,2.03,0.48,2.99,0.62c1.01,0.15,1.83-0.48,2.15-1.25c0.68-1.65,1.05-3.43-0.24-5
			C499.15,219.53,498.3,218.8,497.32,217.83z M493.41,219.26c-0.46-0.28-0.76-0.59-1.09-0.64c-3.02-0.42-5.74,0.21-7.95,2.44
			c-0.42,0.43-0.89,0.93-0.48,1.63c2.92,0.95,4.04,0.97,8.57,0.08C492.76,221.64,493.08,220.46,493.41,219.26z M497.69,216.43
			c1.39-2.26,1.52-4.27,0.43-6.34c-0.65-1.24-1.72-1.53-2.75-0.62c-0.52,0.45-1.05,1.18-1.1,1.82c-0.12,1.74,0.01,3.49,0.07,5.24
			c0.01,0.18,0.26,0.36,0.47,0.64C495.72,216.94,496.67,216.7,497.69,216.43z M498.49,229.94c-0.68,1.45-0.34,2.61,0.49,3.64
			c0.66,0.83,1.57,1.18,2.65,1.13c1.61-0.08,2.6-1.16,2.24-2.74c-0.31-1.31-0.86-2.57-1.39-4.09c-0.86,0.51-1.45,0.91-2.08,1.23
			C499.75,229.45,499.05,229.7,498.49,229.94z M504.04,221.79c1.47,0.44,2.49-0.09,3.23-0.95c0.63-0.72,1.08-1.65,1.44-2.55
			c0.25-0.64-0.16-1.3-0.78-1.52c-2.05-0.74-4.06-0.63-6.17,0.31C502.57,218.75,503.27,220.19,504.04,221.79z M494.73,229.81
			c-0.67-0.58-1.17-0.96-1.61-1.41c-0.26-0.26-0.46-0.6-0.63-0.93c-0.26-0.48-0.56-0.81-1.27-0.51c-0.1,2.19-0.44,4.43,0.33,6.82
			c0.89,0.05,1.71,0.09,2.48,0.13c0.23-0.55,0.46-0.89,0.51-1.25C494.64,231.79,494.66,230.91,494.73,229.81z"/>
		<path class="st0" d="M424.04,186.79c0.55-0.57,1.19-0.4,1.67-0.02c1.25,1,2.54,2,3.07,3.62c-0.17,0.21-0.35,0.41-0.52,0.62
			c-0.39-0.18-0.77-0.35-1.16-0.53c0,0,0.08,0.08,0.08,0.08c-0.28-0.28-0.57-0.57-0.85-0.85c0,0,0.09,0.08,0.09,0.08
			c-0.5-1.08-1.13-2.03-2.37-2.37c0,0,0.07,0.09,0.07,0.09c0-0.28,0-0.55-0.01-0.83L424.04,186.79z"/>
		<path class="st0" d="M173.76,656.42c-0.79,0.46-1.14,0.73-1.54,0.88c-0.17,0.06-0.44-0.12-0.66-0.19c0.2-0.23,0.36-0.57,0.61-0.66
			C172.48,656.33,172.87,656.42,173.76,656.42z"/>
		<path class="st0" d="M342.61,490.32c-0.01-0.29-0.02-0.58-0.04-0.87c0,0-0.08,0.07-0.08,0.07c0.73-0.17,1.53-0.19,2.16-0.53
			c1.1-0.6,2.16-0.5,3.27-0.21l-0.07-0.09c-0.17,0.29-0.27,0.71-0.52,0.86c-1.48,0.88-3.1,1-4.77,0.71L342.61,490.32z"/>
		<path class="st0" d="M429.58,191.15c0.96,0.16,1.43,0.7,1.35,1.69c0,0,0.07-0.06,0.06-0.06c-0.29,0.08-0.71,0.32-0.85,0.21
			c-0.46-0.35-0.82-0.84-1.21-1.28C429.15,191.53,429.36,191.34,429.58,191.15z"/>
		<path class="st0" d="M342.56,490.25c-0.57,0.92-1.27,0.89-2.46,0.06c1.13,0,1.82,0,2.52,0
			C342.61,490.32,342.56,490.25,342.56,490.25z"/>
		<path class="st0" d="M347.85,488c0.72-0.21,1.41-0.16,2.56-0.06c-1.03,0.91-1.7,1.21-2.56,0.74c0,0,0.07,0.09,0.07,0.09
			c0-0.28,0-0.56,0-0.84L347.85,488z"/>
		<path class="st0" d="M428.78,190.39c0.27,0.25,0.53,0.5,0.8,0.76c-0.22,0.19-0.44,0.37-0.66,0.56c-0.22-0.23-0.44-0.47-0.67-0.7
			C428.43,190.81,428.61,190.6,428.78,190.39z"/>
		<path class="st1" d="M273.75,469.83c1.06,0,2.12,0,3.18,0c-1.05,0.38-2.09,0.54-3.11-0.06
			C273.83,469.77,273.75,469.83,273.75,469.83z"/>
		<path class="st1" d="M225.29,478.76c-0.28-0.09-0.56-0.19-0.37-0.12c-0.18-0.11,0.06,0.04,0.3,0.18
			C225.23,478.82,225.29,478.76,225.29,478.76z"/>
		<path class="st1" d="M227.59,456.56c-0.3-0.04-0.6-0.07-0.29-0.04c-0.29-0.14-0.03-0.02,0.22,0.11L227.59,456.56z"/>
		<path class="st1" d="M414.32,177.43c0.02-0.02,0.05-0.04,0.07-0.05C414.39,177.37,414.32,177.43,414.32,177.43z"/>
		<path class="st1" d="M414.39,177.37c-0.1,0.02-0.19,0.04-0.29,0.06c-0.02,0-0.04-0.03-0.07-0.05c0.09,0.02,0.18,0.04,0.28,0.06
			C414.32,177.43,414.39,177.37,414.39,177.37z"/>
		<path class="st0" d="M225.7,261.81c-0.47-0.19-0.92-0.41-1.4-0.56c-2.47-0.81-4.52-2.23-6.12-4.29c-0.85-1.1-1.76-2.16-2.56-3.29
			c-0.34-0.49-0.81-1.28-0.64-1.67c0.61-1.36-0.31-2.46-0.38-3.69c-0.1-1.75-0.31-3.49-0.5-5.52c0.81-1.94,2.53-3.59,4.2-5.28
			c0.09-0.09,0.14-0.25,0.24-0.29c3.39-1.19,5.53-4.3,8.74-5.72c0.99-0.44,2.21-0.62,3.3-0.54c2.18,0.16,4.27,0.04,6.37-0.62
			c0.93-0.29,2.06-0.39,2.98-0.13c2.03,0.58,4,0.39,6.01,0.08c0.75-0.12,1.67-0.48,2.23-0.19c3.21,1.67,6.98,0.49,10.35,2.42
			c0.28-1.58-0.11-2.69-0.71-3.82c-0.89-1.68-1.54-3.4-1.46-5.4c0.04-1.1-0.45-2.22-0.63-3.35c-0.42-2.6-0.99-5.2,0.4-7.72
			c0.23-0.41,0.38-1.06,0.23-1.47c-0.63-1.72,0.56-2.95,1.19-4.23c0.65-1.33,1.81-2.42,2.76-3.6c0.16-0.2,0.34-0.41,0.56-0.51
			c1.27-0.55,2.78-0.81,3.76-1.68c1-0.88,1.55-2.22,2.78-3.03c1.68-1.11,3.45-1.52,5.39-1.33c1.89,0.19,3.76,0.59,5.41-0.9
			c0.38-0.34,1.28-0.44,1.8-0.25c1.63,0.61,3.61-0.21,5,1.27c2.42-0.01,4.75,2.13,7.25,0.06c0.75,0.67,1.4,1.24,2.03,1.82
			c1.59,1.45,3.18,2.74,5.4,3.36c2.53,0.7,4.89,2.01,7.31,3.08c0.46,0.2,0.92,0.46,1.29,0.78c3.93,3.37,7.84,6.75,11.76,10.14
			c0.19,0.17,0.45,0.33,0.52,0.55c0.8,2.38,3.03,3.65,4.32,5.6c1.14,1.73,2.43,3.23,4.05,4.46c0.97,0.74,1.46,1.63,1.55,2.88
			c0.06,0.84,0.28,1.88,0.83,2.43c1.98,1.97,3.41,4.33,4.99,6.59c0.42,1.17,0.48,2.31,0.36,3.61c-0.1,1.09,1.27,2.05,1.29,3.43
			c0.02,1.54,0.11,3.02-1.09,4.24c-0.2,0.2-0.11,0.68-0.18,1.29c1.82,0.55,3.62,1.08,5.4,1.64c0.59,0.18,1.45,0.24,1.7,0.65
			c0.94,1.51,2.55,1.53,3.93,2.06c0.71,0.27,1.5,0.42,2.1,0.84c2.29,1.59,4.57,3.17,7.4,3.69c0.48,0.09,1.05,0.34,1.33,0.7
			c1.99,2.62,5.03,3.61,7.68,5.24c1.8,1.1,3.22,2.8,4.91,4.11c3.48,2.7,6.74,5.64,9.64,8.96c0.66,0.75,1.46,1.43,2.32,1.96
			c2.42,1.49,4.05,3.77,5.95,5.77c0.85,0.9,1.23,2.02,0.54,3.13c-0.85,1.36-0.33,2.3,0.5,3.41c1.05,1.41,2.25,2.86,2.75,4.49
			c1.62,5.29,4.81,10.07,5.14,15.77c0.01,0.25,0.15,0.48,0.22,0.73c0.53,1.85,0.79,3.67,0.04,5.57c-0.41,1.04-0.61,2.24-0.56,3.35
			c0.14,2.74-0.92,5.17-1.66,7.69c-0.35,1.21-0.64,2.45-0.95,3.67c-0.35,0.43-0.7,0.85-1.05,1.28c-0.24,0.75-0.47,1.5-0.71,2.25
			c-0.63,0.77-1.2,1.62-1.91,2.3c-0.65,0.62-1.28,1.05-1.17,2.18c0.06,0.61-0.56,1.34-0.98,1.95c-0.94,1.35-2.01,2.6-2.89,3.98
			c-0.63,0.98-1.38,1.68-2.32,2.38c-1.56,1.16-3.57,2.15-3.47,4.66c-2.44,0.69-4.01,2.27-5.39,4.15c-1.21,1.66-2.78,2.92-4.7,3.73
			c-0.57,0.24-1.19,0.52-1.62,0.95c-2.7,2.75-6.04,4.55-9.35,6.42c-1.19,0.68-2.2,1.67-3.42,2.61c0.3,2.04,0.54,4,2.25,5.45
			c0.45,0.38,0.86,1,0.98,1.57c0.48,2.44,1.78,4.43,3.39,6.31c-0.18,0.89-0.35,1.74-0.55,2.8c2.41,2.38,1.57,5.73,2.75,9.09
			c-2.5-1.51-4.45-2.66-6.36-3.86c-0.74-0.47-1.8-0.96-2.01-1.65c-0.8-2.65-2.85-4.38-4.34-6.52c-0.83-1.2-1.15-2.41-0.98-3.92
			c0.23-2.11-0.37-4.17-0.95-6.49c-2.34,0.96-4.3,1.76-6.26,2.55c-0.47,0.19-0.94,0.48-1.43,0.5c-3.17,0.13-5.75,1.65-8.41,3.42
			c0.46,0.77,0.96,1.48,1.35,2.25c0.34,0.67,0.86,1.45,0.76,2.1c-0.33,2.21,0.48,4.23,0.73,6.34c0.29,2.5,0.37,5.02,0.55,7.71
			c-2.34,0.18-4-0.31-5.33-2.26c-1.07-1.58-2.01-3.04-2.52-4.97c-0.44-1.7-1.05-3.17-0.85-5.06c0.16-1.52-0.7-3.14-1.15-4.87
			c-0.8,0.19-1.62,0.2-2.2,0.57c-1.02,0.66-2,1.04-3.21,0.65c-0.34-0.11-0.81-0.18-1.09-0.03c-2.42,1.33-5.07,1.4-7.73,1.57
			c-1.38,0.09-2.18,1-1.78,2.33c0.85,2.84,0.21,5.72,0.31,8.55c0.09,2.69-1.01,5.42-1.58,8.13c-0.07,0.34-0.11,0.69-0.17,1.08
			c-1.82,0.13-2.76-1.19-3.95-1.88c-0.45-2.94-0.91-5.68-1.28-8.42c-0.36-2.6,0.78-5.24,0-8.08c-4.11-0.04-8.08-0.11-12.06-0.09
			c-3.88,0.01-7.77,0.11-11.94,0.17c0.07,0.98,0.08,1.68,0.18,2.36c0.23,1.63,0.51,3.26-0.2,4.86c-0.05,0.12-0.12,0.24-0.12,0.36
			c-0.03,3.7-1.19,7.16-2.05,10.71c-0.53,2.19-1.15,4.1-2.91,5.55c-0.37,0.3-0.62,0.74-1.08,1.31c-1.76-2.12-1.82-4.46-1.81-6.82
			c0.01-3.2,1.46-6.11,1.84-9.23c0.38-3.09,1.38-6.11,1.19-9.48c-0.62-0.13-1.21-0.42-1.76-0.35c-2,0.23-3.95-0.85-5.98-0.16
			c-0.38,0.13-1.05-0.17-1.4-0.49c-1.23-1.11-2.71,0.33-3.98-0.49c-1.17-0.76-2.49-1.17-4.06-1.3c-0.25,1.06-0.68,2.01-0.67,2.97
			c0.02,3.83-1.18,7.33-2.26,10.95c-1.18,3.93-3.45,7.16-5.33,11.2c-0.69-2.78-0.75-5.05-0.62-7.33c0.14-2.5,0.01-5.05,1.43-7.33
			c0.31-0.49,0.24-1.23,0.32-1.85c0.37-3.13,0.73-6.27,1.12-9.68c-1.11-0.97-2.72-1.22-4.33-1.4c-3.01-0.33-5.69-1.21-8.11-2.67
			c-0.75-0.45-1.58-0.83-2.42-1.04c-1.71-0.43-3.42-0.74-4.99-1.7c-0.93-0.57-2.16-0.65-3.47-0.18c-2.46,5.26-4.96,10.62-7.48,15.97
			c-0.27,0.56-0.57,1.15-1,1.59c-0.75,0.77-1.11,1.93-2.53,2.67c0-3.09,0.08-5.82,1.14-8.38c0.63-1.52,1.19-3.03,1.54-4.64
			c0.54-2.48,1.93-4.62,2.95-6.9c0.51-1.14,1.04-2.27,1.65-3.61c-0.61-0.32-1.14-0.59-1.66-0.85c-0.67-0.34-1.42-0.59-2-1.04
			c-2.08-1.64-4.02-3.38-6.81-3.89c-0.94-0.17-1.69-1.44-2.49-2.24c-0.44-0.44-0.71-1.25-1.2-1.4c-2.38-0.72-3.86-2.75-5.96-3.88
			c-0.86-0.46-1.53-1.27-2.25-1.96c-2-1.9-3.58-4.17-5.43-6.21c-0.28-2.12-1.82-3.54-2.84-5.26c-0.96-1.62-1.62-3.42-2.57-5.06
			c-2.24-3.86-3.38-8.13-4.58-12.35c-0.47-1.65-0.32-3.54-0.14-5.29c0.34-3.24-0.12-6.58,1.17-9.72c0.38-0.92,0.82-2.04,0.62-2.93
			c-0.57-2.64,0.71-4.68,1.9-6.71c0.77-1.32,1.7-2.52,1.81-4.11c1.91-2.56,2.93-5.57,4.27-8.41c2.42-1.8,3.75-4.38,5.04-7
			c0.11-0.22,0.29-0.53,0.48-0.57c1.89-0.32,2.34-2.23,3.61-3.19c3.16-2.39,5.52-5.51,8.03-8.51c0.39-0.47,1-0.74,1.51-1.11
			c0.54,0.13,1.01,0.11,1.19-0.55c0.13-0.06,0.21-0.16,0.25-0.29c1.61-0.38,2.8-1.31,3.62-2.74c0,0-0.02,0.02-0.02,0.02
			c0.82-0.58,1.66-1.68,2.45-1.65c2.26,0.08,3.14-2,4.87-2.66c0.36-0.14,0.51-0.79,0.86-1.38
			C228.12,262.32,226.91,262.07,225.7,261.81z M328.85,374.02c-0.07,0.93-0.15,1.85-0.23,2.88c2.41-0.7,2.67-1,2.22-2.65
			c-0.12-0.45-0.48-0.84-0.73-1.26c0.02-1.13,0.05-2.27,0.05-3.4c0-1.14-0.02-1.14-1.49-3.52c-0.17,0.99-0.41,1.67-0.37,2.33
			C328.43,370.28,328.66,372.15,328.85,374.02z M253.78,240.36c-2.02-0.61-4.33,0.04-6.15-1.48c-0.25-0.21-0.72-0.22-1.09-0.23
			c-2.75-0.03-5.48,0.49-8.26,0.21c-1.01-0.1-2.16,0.59-3.17,1.09c-1.17,0.58-2.39,0.05-3.65,0.49c-2.65,0.91-4.92,2.39-6.95,3.5
			c-0.42,1.07-0.54,1.85-0.97,2.4c-0.86,1.09-1.01,2.24-0.86,3.56c0.22,1.93,0.74,3.62,2.41,4.87c0.89,0.66,1.49,1.7,2.32,2.47
			c0.53,0.49,1.24,0.79,1.87,1.17c1.01,1.03,2.33,1.42,3.65,1.94c4.98-2.52,10.39-3.94,15.17-6.81c0.83-0.5,1.95-0.81,2.9-0.72
			c1.64,0.16,3.12-0.33,4.3-1.18c1.64-1.18,3.32-1.35,5.24-1.55c3.63-0.37,7.21-1.22,10.8-1.97c1.19-0.25,2.36-0.69,3.55-1.7
			c-0.63-0.51-1.05-0.99-1.58-1.24c-2.24-1.06-4.09-3.04-6.83-2.94c-1.65-1.33-3.78-1.37-5.68-2.01
			C258.5,239.46,256.11,239.43,253.78,240.36z M246.6,370.99c-0.51-0.7-1.02-1.39-1.53-2.09c-0.27-0.82-0.53-1.64-0.8-2.46
			c-0.3-0.9-0.32-1.96-1.37-2.49c-0.33,1.59-0.04,3.02,0.61,4.41c-0.91,1.5-0.91,1.51-1.99,0.46c-0.36-0.35-0.69-0.72-1.04-1.08
			c0.24-0.95-0.29-1.57-0.93-2.14l-0.11-0.25c-1.07-3.89-3.28-7.42-3.71-11.52c-0.02-0.24-0.16-0.5-0.31-0.68
			c-0.88-1.06-0.85-2.38-0.98-3.61c-0.32-3.14-1.02-6.15-1.99-9.16c-0.64-1.98-1.43-4.14-0.86-6.27c0.5-1.85,0.18-3.61-0.42-5.19
			c-1.07-2.81-1.19-5.63-1.18-8.55c0-1.61-0.24-3.27-0.7-4.82c-0.37-1.27-0.47-2.48-0.25-3.73c0.42-2.41,0.09-4.76-0.29-7.16
			c-0.44-2.71-0.57-5.49-0.6-8.24c-0.03-2.46,0.84-4.92,0.05-7.41c-0.1-0.33,0.01-0.77,0.14-1.11c0.72-1.83,0.39-3.75,0.62-5.61
			c0.33-2.66-0.6-5.29,0.13-7.93c0.16-0.6,0.03-1.52-0.94-2.13c-1.28,0.98-2.98,1.51-3.89,3.16c-0.52,0.94-1.34,1.44-2.41,1.66
			c-0.57,0.11-1.17,0.43-1.6,0.83c-2.62,2.38-5.26,4.74-7.76,7.24c-0.96,0.96-1.58,2.25-2.33,3.41c-0.33,0.51-0.49,1.28-0.95,1.53
			c-1.12,0.6-1.51,1.64-2.07,2.62c-0.37,0.64-0.84,1.29-1.44,1.71c-2.33,1.63-3.41,4.01-4.22,6.59c-0.22,0.71-0.27,1.58-0.72,2.1
			c-2.26,2.6-2.38,6.07-3.77,9.02c-0.14,0.31-0.01,0.75,0,1.13c-0.19,0.98-0.11,2.13-0.62,2.91c-0.9,1.4-0.86,2.86-0.96,4.37
			c-0.08,1.25-0.12,2.53-0.38,3.75c-0.45,2.09,0.01,4.2,0.86,5.88c0.78,1.54,1.18,2.99,1.34,4.62c0.05,0.5,0.05,1.06,0.28,1.47
			c1.17,2.08,2.39,4.14,3.63,6.18c1.5,2.48,3.31,4.81,4.48,7.44c0.78,1.75,1.82,3.15,3.35,3.92c2.44,1.22,4.31,3.04,6.21,4.87
			c0.93,0.9,1.95,1.54,3.25,1.81c0.83,0.18,2.12,0.52,2.29,1.07c0.6,1.96,2.35,2.12,3.73,2.86c2.18,1.17,3.97,3.14,6.65,3.36
			c0.32,0.03,0.59,0.46,0.92,0.65c2.29,1.29,4.58,2.59,6.91,3.83c0.54,0.29,1.18,0.44,1.8,0.52c2.66,0.35,5.03,1.55,7.42,2.63
			c1.67,0.75,1.62,0.85,4.14,0.24c-0.88-1.69-1.75-3.36-2.62-5.03c-0.29-0.95-0.71-1.89-0.83-2.86c-0.4-3.23-1.97-6.19-2.1-9.49
			c-0.02-0.62-0.34-1.52-1.51-1.04C245.67,361.79,246.14,366.39,246.6,370.99z M304.39,243.12c1.35-0.08,1.24,1.42,2.19,1.98
			c1.81,0.47,3.73,1.11,5.8,0.52c0.46-0.13,1-0.05,1.49,0.04c4.65,0.87,9.37,1.35,13.89,2.85c0.92,0.31,1.96,0.27,3.01,0.4
			c1.5-2.28-1.01-2.73-1.73-4.18c-0.02-0.28-0.01-0.79-0.12-1.27c-0.48-2.09-0.96-4.44-2.56-5.73c-1.53-1.23-2.06-2.76-2.85-4.28
			c-0.57-1.1-0.82-2.44-2.24-2.89c-1.74-2.6-3.35-5.28-6.09-7.06c-1.03-0.66-1.78-1.77-2.63-2.7c-1.52-1.68-2.98-3.42-5.13-4.37
			c-1.05-0.47-1.87-1.19-2.48-2.23c-0.6-1.03-1.49-1.63-2.84-1.44c-0.52,0.07-1.16-0.28-1.67-0.57c-2.42-1.35-4.94-2.48-7.51-3.49
			c-1.05-0.41-2.01-1.11-3.08-1.39c-1.68-0.45-3.45-0.6-5.15-1c-2.72-0.63-5.39-0.9-8.01,0.42c-0.38,0.19-0.92,0.08-1.39,0.08
			c-0.49,0-1.11-0.22-1.43,0c-2.09,1.45-5.29,1.3-6.25,4.38c-0.13,0.43-0.62,0.89-1.05,1.06c-2.02,0.77-2.43,2.34-2.35,4.26
			c0.04,0.88-0.22,1.77-0.15,2.64c0.17,2.47-0.18,5.13,2.19,6.94c0.27,0.2,0.52,0.64,0.51,0.96c-0.08,2.14,1.5,3.37,2.56,4.89
			c0.4,2.06,1.51,3.57,3.09,5.01c2.11,1.93,4.32,3.86,5.64,6.54c0.37,0.76,1.06,1.42,1.73,1.98c0.45,0.37,1.12,0.69,1.69,0.68
			c1.75-0.04,3.54-0.05,5.23-0.44c2.01-0.47,3.97-0.51,5.98-0.32c0.73,0.07,1.6,0.2,2.18-0.12c1.23-0.66,2.39-0.45,3.65-0.3
			c1.61,0.19,3.26,0.18,4.89,0.09C304.62,245.01,304.6,244.06,304.39,243.12z M324.19,375.39c-0.31-1.6-0.62-3.2-0.94-4.8
			c-0.12-0.62-0.35-1.22-0.4-1.84c-0.32-3.52-0.72-7.04-0.85-10.57c-0.08-2.16-0.65-4.26-0.68-6.37c-0.05-3.24-0.78-6.5,0.03-9.75
			c0.15-0.59-0.03-1.26-0.11-1.89c-0.31-2.38-0.68-4.76-0.96-7.15c-0.28-2.36-0.02-4.71-0.56-7.12c-0.53-2.39-0.12-5.01-0.02-7.53
			c0.16-3.87,1.08-7.73,0.13-11.62c-0.12-0.49-0.22-1.02-0.15-1.51c0.59-3.88-1.3-7.81,0.22-11.67c0.08-0.2-0.09-0.5-0.09-0.75
			c-0.01-3.16-0.14-6.33,0.01-9.49c0.15-3.14-1.16-6.25-0.18-9.39c-0.81-2.9-0.47-5.78,0.13-8.66c0.05-0.24,0.07-0.52,0-0.76
			c-0.73-2.63,0.04-5.28-0.1-7.91c-0.03-0.63,0.06-1.27,0.06-1.9c-0.01-0.97-0.44-1.74-1.33-2.13c-0.8-0.34-1.64-0.74-2.48-0.79
			c-2.78-0.19-5.56-0.25-8.34-0.33c-2.73-0.07-5.42-1.43-8.21-0.28c-0.29,0.12-0.72-0.15-1.1-0.19c-3.76-0.49-7.46-0.46-11.08,0.99
			c0.27,1.59,0.03,3.23,1.99,3.81c0.36,0.11,0.67,0.77,0.78,1.23c0.33,1.47,0.65,2.96,0.78,4.46c0.17,2.01,0.4,4.04,0.5,6.03
			c0.22,4.55,0.52,9.08,1.23,13.58c0.19,1.24,0.11,2.52,0.24,3.77c0.29,2.72,1.1,5.39,0.43,8.19c-0.23,0.95-0.28,2.13,0.08,3
			c0.57,1.38,0.47,2.76,0.46,4.12c-0.02,2.87,0.98,5.73,0.06,8.62c-0.17,0.55,0.13,1.24,0.19,1.87c0.07,0.75,0.3,1.54,0.16,2.25
			c-0.52,2.58,0.13,5.07,0.56,7.54c0.46,2.64,0.73,5.23,0.27,7.89c-0.17,0.99-0.41,2.15-0.06,3.01c1.09,2.66,0.63,5.5,1.23,8.21
			c0.52,2.32,0.75,4.72,0.96,7.1c0.29,3.14,0.48,6.29,0.65,9.44c0.16,2.98,1.59,5.87,0.65,8.94c-0.1,0.33,0.02,0.77,0.14,1.12
			c0.77,2.3,0.52,4.74,0.94,7.09c0.2,1.11,0.3,2.24,0.44,3.37c0.22,1.56,0.45,3.11,0.69,4.81c0.64-0.07,1.12-0.11,1.6-0.17
			c3.99-0.54,7.94-1.53,12.03-1.2c0.85,0.07,1.92,0.02,2.58-0.43c2.01-1.37,4.28-1.23,6.5-1.51c0.61-0.08,1.22-0.13,1.81-0.19
			c0.02-0.4,0.12-0.69,0.03-0.88C324.83,376.47,324.49,375.94,324.19,375.39z M253.69,373.21c-0.29,1.05-0.09,2,0.62,2.98
			c3.34,1.02,6.6,2.56,10.31,2.84c1.97,0.15,3.9,0.82,5.95,0.68c0.58-0.04,1.18,0.38,1.79,0.47c1.71,0.27,3.44,0.75,5.13,0.64
			c1.01-0.07,2.07-0.39,2.91,0.11c1.51,0.9,2.95-0.29,4.44,0.15c1.44,0.42,2.96,0.59,4.46,0.8c0.34,0.05,0.72-0.21,1.09-0.28
			c0.62-0.12,1.25-0.17,1.86-0.33c0.96-0.26,2.08,0.89,2.85-0.11c0.96-1.24-0.76-1.95-0.87-3.03c-0.01-0.13-0.05-0.25-0.07-0.37
			c0.01-0.25,0.11-0.55,0.02-0.75c-1.29-2.76-2.22-5.61-2.3-8.7c-0.03-1.1-0.42-2.06-1.27-3.26c0.13,5.31,0.13,5.31-0.93,6.61
			c-0.46-0.4-1.09-0.72-1.34-1.22c-0.93-1.8-2.19-3.59-2.5-5.52c-0.55-3.49-1.42-6.91-1.94-10.4c-0.24-1.61-0.65-3.2-1.01-4.79
			c-0.11-0.48-0.46-0.95-0.46-1.42c0.04-2.9-1.52-5.62-0.93-8.6c0.09-0.43-0.33-0.94-0.4-1.43c-0.41-2.84-1.24-5.59-1.14-8.55
			c0.1-2.76-0.1-5.59-0.66-8.28c-0.29-1.38-0.71-2.72-0.42-4.06c0.42-1.97,0.12-3.75-0.65-5.54c-0.19-0.45-0.54-1.13-0.36-1.4
			c0.97-1.45,0.41-2.91,0.31-4.41c-0.25-3.98,0.56-8.03-0.96-11.91c-0.04-0.11-0.03-0.25-0.03-0.38c0.06-2.39,0.16-4.77,0.17-7.16
			c0.02-3.16-0.04-6.31-0.02-9.47c0.01-1.25,0.2-2.5,0.23-3.74c0.04-2.39,0.29-4.81-0.07-7.14c-0.29-1.93-0.12-3.8-0.01-5.67
			c0.15-2.35,0.65-4.68,1.05-7.31c-1.47,0.08-2.71,0.07-3.93,0.22c-4.11,0.5-8.37,0.27-12.08,2.63c-0.3,0.19-0.73,0.21-1.11,0.22
			c-3.78,0.11-6.69,3.01-10.44,3.22c-0.34,0.02-0.73,0.3-0.96,0.58c-0.91,1.04-2.15,1.23-3.38,1.53c-0.82,0.2-1.57,0.65-2.41,1
			c-0.08,3.6-0.41,7.01-0.12,10.37c0.15,1.64,0.14,3.25,0.16,4.88c0.03,2.4,0.11,4.79,0.24,7.18c0.11,2.01,0.51,4.02,0.43,6.02
			c-0.06,1.66-0.27,3.23,0.46,4.83c0.28,0.6,0,1.46-0.04,2.2c-0.12,2.53-0.24,5.05-0.36,7.58c1.52,3.57,1.42,7.45,2.09,11.17
			c0.56,3.09,0.59,6.27,0.89,9.41c0.29,3,0.39,6,0.57,9.01c0.13,2.13,0.42,4.26,0.68,6.38c0.48,4.01,0.94,8.02,1.49,12.02
			c0.46,3.38,1.03,6.74,1.56,10.11C252.72,366.97,253.21,370.09,253.69,373.21z M355.88,365.9c3.14-1.14,5.78-3.05,8.2-5.31
			c1.37-1.27,2.4-2.95,4.49-3.32c0.52-0.09,0.9-0.84,1.39-1.24c2.02-1.66,3.33-4.03,5.9-5.21c1.48-0.68,2.54-2.29,2.72-4.41
			c-0.95,0-1.69-0.09-2.41,0.02c-1.69,0.27-3.39,0.04-4.82-0.68c-2.6-1.31-4.84-3.22-6.65-5.5c-1.14-1.42-1.52-3.18-1.06-5.05
			c0.23-0.95,0.68-1.65,1.63-1.9c0.98-0.26,1.85,0.12,2.22,1.02c0.61,1.48,1.79,2.02,3.18,2.42c1.94,0.54,3.96,0.96,5.75,1.83
			c1.32,0.64,2.59,0.88,3.97,0.92c1.24,0.04,2.48,0.12,3.65,0.17c1.33-0.83,1.94-2.06,2.47-3.38c1.18-2.92,2.62-5.72,3.43-8.8
			c0.82-3.1,2.43-5.94,1.67-9.42c-0.31-1.41-0.27-2.97-0.64-4.45c-0.33-1.34-0.25-2.77-0.44-4.14c-0.17-1.24-0.25-2.57-0.76-3.69
			c-1.3-2.86-2.21-5.97-4.6-8.23c-0.26-0.25-0.56-0.63-0.57-0.96c-0.03-1.74-1.63-2.5-2.31-3.83c-0.68-1.35-1.39-2.79-2.43-3.85
			c-2.5-2.53-4.34-5.56-6.65-8.24c-3.75-4.34-7.85-8.29-12.33-11.81c-3.07-2.41-6.21-4.75-9.99-6.1c-1.76-0.63-3.24-2.15-5.01-2.65
			c-4-1.12-7.28-4.13-11.61-4.33c-0.71-0.03-1.4-0.56-2.11-0.83c-0.47-0.18-0.99-0.49-1.43-0.42c-2.14,0.34-3.96-0.56-5.85-1.29
			c-0.28-0.11-0.69,0.1-1.24,0.2c-0.02,0.9-0.07,1.77-0.05,2.63c0,0.19,0.26,0.37,0.4,0.55c0.13-0.01,0.26,0.01,0.38-0.02
			c2.86-0.65,2.88-0.5,3.68,2.03c0.98,3.12,0.21,6.62,2.17,9.51c0.12,0.18,0.08,0.51,0.02,0.74c-0.6,2.38,1.05,4.67,0.26,7.05
			c1.38,2.78,0.61,6,1.83,8.83c0.28,0.65,0.35,1.6,0.09,2.24c-0.71,1.8-0.22,3.47,0.09,5.22c0.22,1.24,0.18,2.53,0.28,3.79
			c0.26,3.14,0.54,6.27,0.81,9.4c1.09,1.53-0.13,3.29,0.42,4.8c0.84,2.31,0.86,4.71,1.19,7.08c0.21,1.51,0.46,2.95-0.14,4.46
			c-0.26,0.66-0.3,1.54-0.08,2.21c0.6,1.86,0.52,3.75,0.56,5.65c0.03,1.5,0.27,2.99,0.49,4.48c0.53,3.58,1.15,7.19,0.61,10.88
			c-0.33,2.23-0.41,4.53,0.19,6.8c0.22,0.82,0.26,1.77,0.07,2.59c-0.77,3.41-0.57,6.79,0.27,10.13c0.26,1.04,0.36,1.95-0.03,2.94
			c-0.78,1.95-0.61,3.93-0.13,6.08c0.95-0.38,1.85-0.75,2.75-1.11c3.08-0.01,5.83-0.84,8.07-3.07c0.81-0.81,1.88-1.1,3-1.36
			C352.62,367.58,354.63,367.61,355.88,365.9z M238.38,300.18c0.76-1.94,0.78-3.5,0.32-5.12c-0.17-0.58-0.38-1.26-0.24-1.8
			c0.42-1.63,0.55-3.2-0.01-4.84c-0.18-0.53,0.18-1.22,0.19-1.83c0.02-0.86-0.04-1.72-0.11-2.58c-0.05-0.61-0.46-1.37-0.23-1.78
			c0.73-1.26,0.2-2.5,0.2-3.72c0-2.4-0.06-4.76,0.51-7.15c0.51-2.13,0.92-4.37,0.34-6.92c-1.66,1.06-3.1,1.98-4.62,2.95
			c-0.06,1.22-0.09,2.48-0.18,3.73c-0.06,0.92,0.09,1.72,0.66,2.49c1.64,2.26,1.41,5.05,2.06,7.6c0.08,0.3-0.07,0.9-0.28,1
			c-1.52,0.71-0.82,1.98-0.72,3c0.11,1.12,0.88,2.25,0.74,3.29c-0.47,3.32,0.71,6.52,0.45,9.81
			C237.4,298.79,237.94,299.33,238.38,300.18z"/>
		<path class="st2" d="M393.28,337.78c0.24-0.75,0.47-1.5,0.71-2.25c0.49,0.46,0.97,0.77,1.15-0.22c0.06-0.34-0.06-0.7-0.1-1.05
			c0.32-1.22,0.6-2.46,0.95-3.67c0.74-2.52,1.8-4.95,1.66-7.69c-0.06-1.11,0.15-2.32,0.56-3.35c0.75-1.91,0.49-3.72-0.04-5.57
			c-0.07-0.24-0.2-0.48-0.22-0.73c-0.33-5.71-3.52-10.48-5.14-15.77c-0.5-1.63-1.7-3.08-2.75-4.49c-0.82-1.11-1.35-2.05-0.5-3.41
			c0.69-1.11,0.31-2.23-0.54-3.13c-1.9-2.01-3.53-4.28-5.95-5.77c-0.85-0.53-1.66-1.2-2.32-1.96c-2.91-3.32-6.16-6.26-9.64-8.96
			c-1.69-1.31-3.11-3.01-4.91-4.11c-2.65-1.63-5.7-2.61-7.68-5.24c-0.28-0.37-0.85-0.61-1.33-0.7c-2.83-0.52-5.11-2.1-7.4-3.69
			c-0.6-0.42-1.39-0.57-2.1-0.84c-1.38-0.53-2.99-0.55-3.93-2.06c-0.26-0.41-1.11-0.47-1.7-0.65c-1.79-0.55-3.58-1.08-5.4-1.64
			c0.07-0.61-0.01-1.09,0.18-1.29c1.2-1.22,1.11-2.7,1.09-4.24c-0.02-1.38-1.38-2.34-1.29-3.43c0.11-1.29,0.06-2.43-0.36-3.61
			c0.77-0.41,1.53-0.82,2.34-1.25c0.96,0.59,1.75,1.29,2.67,1.6c1.7,0.58,2.76,1.67,3.26,3.56c0.56-0.1,1.08-0.36,1.46-0.22
			c1.01,0.38,1.26,1.79,2.6,1.9c1.05,0.09,1.81,0.74,2.21,1.83c0.1,0.29,0.79,0.44,1.23,0.51c1.3,0.21,2.53,0.65,3.11,1.87
			c0.71,1.49,3.07,1.44,3.1,3.47c1,0.5,2.08,0.89,2.97,1.53c1.4,1.01,2.34,2.69,4.34,2.77c1,1.51,2.8,2.02,4.03,3.24
			c1.84,1.83,3.67,3.68,6.32,4.33c1.07,1.67,3.64,1.79,4.17,4.1c0.09,0.39,1.02,0.6,1.72,0.97c-0.07,0.61-0.15,1.31-0.27,2.26
			c0.63,0.02,1.23-0.04,1.8,0.09c1.14,0.26,1.58,0.88,1.25,2.13c-0.31,1.17,0.05,1.92,1.07,2.64c0.17-0.86,0.33-1.64,0.53-2.57
			c2.04,1.19,2.14,3.21,2.99,5.1c0.6,0.24,1.41,0.56,2.38,0.95c0.09,1.1-0.01,2.42,1.39,3.04c1.22,0.54,0.86,1.64,0.78,2.8
			c0.78,0.15,1.57,0.3,2.6,0.5c-0.52,0.93-0.92,1.65-1.44,2.57c1,0.46,1.87,0.87,2.84,1.33c0.05,0.27,0.22,0.65,0.14,0.98
			c-0.24,1.06-0.39,2.04,1.01,2.37c0.72,0.17,0.92,0.73,1.17,1.33c0.86,2.03,1.99,3.96,1.7,6.32c-0.14,1.12,1.18,2.33-0.2,3.44
			c-0.1,0.08,0.15,0.72,0.35,1.02c0.34,0.51,0.78,0.96,1.28,1.56c-0.45,0.8-0.87,1.55-1.39,2.47c1.81,1.83,1.84,4.13,1.34,6.53
			c-0.45,0.13-0.81,0.23-1.18,0.33c0.03-0.67,0.06-1.35,0.1-2.01c-1-0.5-1.34,0-1.44,0.87c-0.13,1.12,0.67,1.05,1.39,1.08
			c-0.19,0.98-0.46,1.95,0.43,2.78c0.51,0.47,0.71,1.21,0.15,1.63c-0.4,0.3-1.14,0.13-1.78,0.17c-0.77,1.4,0.36,2.99-0.23,4.6
			c-0.53,1.47-0.72,3-1.42,4.5c-0.75,1.61-3.17,1.34-3.06,3.6c0.15,0.23,0.42,0.64,0.8,1.2c-0.65,1.21-1.29,2.54-2.07,3.77
			C394.42,338.48,393.78,338.35,393.28,337.78z M399.15,295.49c-0.5,1.88-0.22,2.81,1.12,3.52
			C400.92,297.51,399.78,296.87,399.15,295.49z M354.43,249.04c-0.19-0.12-0.38-0.24-0.58-0.36c-0.03,0.18-0.14,0.44-0.07,0.51
			c0.14,0.13,0.38,0.14,0.58,0.2C354.39,249.27,354.41,249.15,354.43,249.04z"/>
		<path class="st2" d="M225.7,261.81c1.21,0.25,2.42,0.51,3.83,0.81c-0.35,0.59-0.5,1.25-0.86,1.38c-1.73,0.66-2.62,2.74-4.87,2.66
			c-0.8-0.03-1.63,1.07-2.45,1.65c0.26-1.87,0.85-3.53,2.52-4.67C224.56,263.16,225.09,262.43,225.7,261.81z"/>
		<path class="st2" d="M221.36,268.29c-0.81,1.43-2.01,2.36-3.62,2.74c0.06-1.86,0.06-1.84,1.84-2.23
			C220.18,268.67,220.77,268.47,221.36,268.29z"/>
		<path class="st0" d="M336.48,160.05c-0.71,0.93-1.57,0.7-2.47,0.07c0.84,0,1.68,0,2.53,0
			C336.54,160.12,336.48,160.05,336.48,160.05z"/>
		<path class="st2" d="M217.5,271.33c-0.18,0.66-0.65,0.68-1.19,0.55C216.71,271.69,217.1,271.51,217.5,271.33z"/>
		<path class="st2" d="M339.78,372.43c-0.9,0.36-1.8,0.73-2.75,1.11c-0.48-2.15-0.65-4.13,0.13-6.08c0.4-0.99,0.29-1.9,0.03-2.94
			c-0.85-3.34-1.05-6.72-0.27-10.13c0.19-0.82,0.14-1.77-0.07-2.59c-0.6-2.27-0.51-4.56-0.19-6.8c0.54-3.69-0.07-7.3-0.61-10.88
			c-0.22-1.49-0.46-2.98-0.49-4.48c-0.04-1.91,0.04-3.79-0.56-5.65c-0.22-0.67-0.18-1.56,0.08-2.21c0.59-1.51,0.35-2.95,0.14-4.46
			c-0.33-2.37-0.35-4.77-1.19-7.08c-0.55-1.52,0.66-3.27-0.42-4.8c-0.27-3.13-0.55-6.27-0.81-9.4c-0.1-1.26-0.06-2.55-0.28-3.79
			c-0.31-1.74-0.81-3.42-0.09-5.22c0.26-0.64,0.19-1.59-0.09-2.24c-1.21-2.83-0.45-6.05-1.83-8.83c0.79-2.38-0.86-4.67-0.26-7.05
			c0.06-0.24,0.1-0.57-0.02-0.74c-1.96-2.89-1.18-6.39-2.17-9.51c-0.8-2.53-0.82-2.69-3.68-2.03c-0.12,0.03-0.25,0.02-0.38,0.02
			c-0.14-0.18-0.4-0.36-0.4-0.55c-0.02-0.86,0.03-1.73,0.05-2.63c0.55-0.1,0.95-0.31,1.24-0.2c1.89,0.73,3.71,1.63,5.85,1.29
			c0.45-0.07,0.96,0.24,1.43,0.42c0.71,0.27,1.4,0.8,2.11,0.83c4.34,0.2,7.61,3.21,11.61,4.33c1.78,0.5,3.25,2.02,5.01,2.65
			c3.78,1.34,6.92,3.68,9.99,6.1c4.48,3.53,8.58,7.47,12.33,11.81c2.31,2.68,4.15,5.71,6.65,8.24c1.04,1.06,1.75,2.49,2.43,3.85
			c0.68,1.34,2.27,2.1,2.31,3.83c0.01,0.33,0.3,0.71,0.57,0.96c2.4,2.26,3.3,5.37,4.6,8.23c0.51,1.11,0.58,2.44,0.76,3.69
			c0.19,1.38,0.12,2.81,0.44,4.14c0.36,1.49,0.33,3.04,0.64,4.45c0.76,3.48-0.85,6.32-1.67,9.42c-0.81,3.08-2.26,5.88-3.43,8.8
			c-0.53,1.31-1.15,2.55-2.47,3.38c-1.17-0.06-2.41-0.13-3.65-0.17c-1.39-0.04-2.66-0.28-3.97-0.92c-1.79-0.87-3.81-1.28-5.75-1.83
			c-1.4-0.39-2.57-0.94-3.18-2.42c-0.37-0.89-1.24-1.27-2.22-1.02c-0.95,0.25-1.4,0.96-1.63,1.9c-0.46,1.87-0.07,3.62,1.06,5.05
			c1.82,2.28,4.05,4.19,6.65,5.5c1.43,0.72,3.13,0.94,4.82,0.68c0.71-0.11,1.46-0.02,2.41-0.02c-0.19,2.11-1.24,3.72-2.72,4.41
			c-2.56,1.18-3.88,3.55-5.9,5.21c-0.48,0.4-0.87,1.15-1.39,1.24c-2.09,0.37-3.13,2.05-4.49,3.32c-2.42,2.26-5.06,4.17-8.2,5.31
			c-0.75-0.05-1.5-0.14-2.26-0.15c-0.32-0.01-0.82,0.01-0.95,0.21c-0.72,1.13-1.66,1.22-2.91,1.07c-1.26-0.15-2.59,0.23-3.13,1.6
			c-0.64,1.62-2.41,1.53-3.53,2.45c-0.53,0.43-1.81-0.05-2.75-0.12C340.14,371.49,339.96,371.96,339.78,372.43z M359.37,306.51
			c-0.63,2.11,0.15,4.36,1.29,6.52c0.77,1.46,1.98,1.73,3.53,1.18c1.57-0.56,2.18-2.06,3.31-3.04c1.58-1.38,2.06-3.37,2.02-5.12
			c-0.05-2.73-0.47-5.48-0.66-8.23c-0.13-1.88-0.58-3.73-0.88-5.6c-0.27-1.66-0.88-3.18-1.97-4.46c-0.77-0.91-2.28-0.96-3.05-0.04
			c-1.92,2.28-3.42,4.97-3.21,7.88C360,299.16,359.3,302.62,359.37,306.51z"/>
		<path class="st2" d="M253.69,373.21c-0.48-3.12-0.97-6.25-1.45-9.37c-0.52-3.37-1.1-6.73-1.56-10.11c-0.55-4-1.01-8.01-1.49-12.02
			c-0.25-2.12-0.55-4.25-0.68-6.38c-0.18-3-0.28-6.01-0.57-9.01c-0.3-3.14-0.33-6.32-0.89-9.41c-0.67-3.73-0.57-7.61-2.09-11.17
			c0.12-2.53,0.24-5.05,0.36-7.58c0.03-0.74,0.31-1.6,0.04-2.2c-0.73-1.6-0.52-3.17-0.46-4.83c0.07-2-0.32-4.01-0.43-6.02
			c-0.13-2.39-0.21-4.79-0.24-7.18c-0.02-1.63-0.01-3.23-0.16-4.88c-0.3-3.36,0.04-6.77,0.12-10.37c0.84-0.36,1.59-0.8,2.41-1
			c1.23-0.31,2.48-0.5,3.38-1.53c0.24-0.27,0.63-0.56,0.96-0.58c3.75-0.22,6.66-3.11,10.44-3.22c0.37-0.01,0.81-0.04,1.11-0.22
			c3.71-2.36,7.98-2.13,12.08-2.63c1.22-0.15,2.46-0.14,3.93-0.22c-0.39,2.63-0.9,4.96-1.05,7.31c-0.12,1.87-0.29,3.74,0.01,5.67
			c0.35,2.33,0.11,4.76,0.07,7.14c-0.02,1.25-0.22,2.5-0.23,3.74c-0.02,3.16,0.04,6.31,0.02,9.47c-0.02,2.39-0.11,4.77-0.17,7.16
			c0,0.13-0.02,0.27,0.03,0.38c1.52,3.88,0.71,7.93,0.96,11.91c0.09,1.5,0.65,2.96-0.31,4.41c-0.18,0.27,0.17,0.95,0.36,1.4
			c0.77,1.79,1.07,3.58,0.65,5.54c-0.29,1.34,0.13,2.68,0.42,4.06c0.56,2.69,0.76,5.52,0.66,8.28c-0.1,2.95,0.73,5.71,1.14,8.55
			c0.07,0.49,0.49,1,0.4,1.43c-0.59,2.97,0.97,5.69,0.93,8.6c-0.01,0.47,0.35,0.93,0.46,1.42c0.36,1.59,0.77,3.18,1.01,4.79
			c0.52,3.49,1.39,6.91,1.94,10.4c0.3,1.93,1.57,3.72,2.5,5.52c0.26,0.5,0.88,0.81,1.34,1.22c1.05-1.3,1.05-1.3,0.93-6.61
			c0.86,1.2,1.25,2.16,1.27,3.26c0.07,3.09,1,5.93,2.3,8.7c0.1,0.2-0.01,0.5-0.02,0.74c-0.78,0.28-1.66,0.94-2.31,0.76
			c-0.83-0.23-1.45-1.61-2.21-1.65c-0.91-0.05-2.24-0.98-2.99,0.51c-0.05,0.1-0.47,0.06-0.7,0c-2.03-0.55-4.06-1.12-6.36-1.76
			c-1.56,2-3.92,1.63-6.25,1.34c-1.21-0.15-2.41-0.35-3.6-0.52c-0.55-0.57,1.16-0.73,0.24-1.37c-0.51-0.36-0.72-0.08-1.17,0.27
			c-1.13,0.88-1.99,0.26-2.16-1.45c-2.12,0.35-4.26-1.64-6.35,0.21c-1.17-0.89-2.25-1.72-3.51-2.68
			C255.82,371.96,254.75,372.59,253.69,373.21z"/>
		<path class="st2" d="M299.86,376.62c-0.14-1.12-0.24-2.25-0.44-3.37c-0.42-2.35-0.17-4.78-0.94-7.09
			c-0.12-0.36-0.24-0.79-0.14-1.12c0.94-3.07-0.49-5.96-0.65-8.94c-0.17-3.15-0.36-6.3-0.65-9.44c-0.22-2.38-0.45-4.77-0.96-7.1
			c-0.6-2.71-0.14-5.55-1.23-8.21c-0.35-0.85-0.11-2.02,0.06-3.01c0.47-2.66,0.19-5.24-0.27-7.89c-0.43-2.47-1.09-4.96-0.56-7.54
			c0.14-0.71-0.08-1.5-0.16-2.25c-0.06-0.63-0.36-1.32-0.19-1.87c0.91-2.89-0.08-5.75-0.06-8.62c0.01-1.37,0.11-2.74-0.46-4.12
			c-0.36-0.87-0.31-2.04-0.08-3c0.68-2.8-0.13-5.47-0.43-8.19c-0.14-1.25-0.05-2.53-0.24-3.77c-0.7-4.5-1-9.03-1.23-13.58
			c-0.1-1.99-0.32-4.02-0.5-6.03c-0.13-1.5-0.45-2.99-0.78-4.46c-0.1-0.46-0.42-1.13-0.78-1.23c-1.96-0.58-1.72-2.22-1.99-3.81
			c3.62-1.46,7.32-1.49,11.08-0.99c0.37,0.05,0.81,0.31,1.1,0.19c2.79-1.15,5.48,0.2,8.21,0.28c2.78,0.08,5.57,0.14,8.34,0.33
			c0.84,0.06,1.68,0.45,2.48,0.79c0.89,0.38,1.32,1.16,1.33,2.13c0.01,0.63-0.09,1.27-0.06,1.9c0.14,2.64-0.63,5.28,0.1,7.91
			c0.07,0.24,0.05,0.51,0,0.76c-0.6,2.88-0.95,5.76-0.13,8.66c-0.98,3.15,0.33,6.25,0.18,9.39c-0.15,3.16-0.02,6.33-0.01,9.49
			c0,0.25,0.17,0.54,0.09,0.75c-1.52,3.86,0.37,7.79-0.22,11.67c-0.07,0.49,0.03,1.02,0.15,1.51c0.95,3.89,0.03,7.75-0.13,11.62
			c-0.1,2.52-0.51,5.14,0.02,7.53c0.54,2.41,0.28,4.76,0.56,7.12c0.28,2.39,0.65,4.76,0.96,7.15c0.08,0.63,0.26,1.31,0.11,1.89
			c-0.81,3.25-0.08,6.51-0.03,9.75c0.03,2.1,0.6,4.21,0.68,6.37c0.13,3.53,0.53,7.05,0.85,10.57c0.06,0.62,0.28,1.23,0.4,1.84
			c0.32,1.6,0.63,3.2,0.94,4.8c-0.58,0.07-1.43,0.42-1.69,0.16c-0.78-0.76-1.58-0.48-1.94,0.07c-1.66,2.55-4.33,2.11-6.74,2.45
			c-1.17,0.16-1.82-0.67-2.49-1.39c-1.7-0.11-3.38,0.75-5.1-0.48c-0.75-0.54-2.29-0.47-3.22,0.36
			C301.91,377.52,300.92,377.02,299.86,376.62z M314.79,375.81c1.01,0.57,1.98,1.36,3.18,0.35c0.06-0.05,0.05-0.29-0.01-0.36
			C316.94,374.74,315.88,375.12,314.79,375.81z"/>
		<path class="st2" d="M196.97,313.23c-0.01-0.38-0.14-0.82,0-1.13c1.39-2.95,1.51-6.42,3.77-9.02c0.45-0.52,0.5-1.39,0.72-2.1
			c0.81-2.58,1.89-4.96,4.22-6.59c0.59-0.41,1.07-1.07,1.44-1.71c0.57-0.98,0.96-2.02,2.07-2.62c0.46-0.25,0.62-1.02,0.95-1.53
			c0.75-1.16,1.37-2.45,2.33-3.41c2.5-2.5,5.14-4.87,7.76-7.24c0.43-0.39,1.03-0.71,1.6-0.83c1.07-0.22,1.9-0.71,2.41-1.66
			c0.9-1.65,2.6-2.19,3.89-3.16c0.97,0.61,1.11,1.53,0.94,2.13c-0.73,2.64,0.2,5.27-0.13,7.93c-0.23,1.85,0.1,3.78-0.62,5.61
			c-0.13,0.34-0.24,0.79-0.14,1.11c0.79,2.49-0.08,4.94-0.05,7.41c0.03,2.75,0.16,5.53,0.6,8.24c0.39,2.4,0.71,4.75,0.29,7.16
			c-0.22,1.26-0.12,2.46,0.25,3.73c0.45,1.55,0.7,3.21,0.7,4.82c-0.01,2.92,0.11,5.74,1.18,8.55c0.6,1.58,0.92,3.34,0.42,5.19
			c-0.57,2.13,0.22,4.29,0.86,6.27c0.98,3.01,1.67,6.02,1.99,9.16c0.13,1.23,0.1,2.55,0.98,3.61c0.16,0.19,0.29,0.45,0.31,0.68
			c0.42,4.1,2.63,7.63,3.7,11.52c-0.72,0.41-1.43,0.83-2.27,1.32c-1.05-0.69-2.2-1.25-3.11-2.09c-1.72-1.59-3.76-2.21-5.99-2.48
			c-0.14-0.02-0.25-0.34-0.37-0.53c0.51-0.19,1.02-0.38,2.18-0.82c-1.75-0.38-2.78-0.7-3.83-0.79c-0.66-0.05-1.35,0.25-2.41,0.47
			c0.34-0.95,0.56-1.55,0.79-2.18c-2.53-1.54-5.62-1.89-7.74-3.98c-0.3-2.53-0.37-3-1.5-3.7c-0.51-0.31-1.36-0.05-1.97-0.05
			c-3-3.47-6.36-6.53-9.65-9.86c0.47-0.31,0.75-0.5,1.03-0.68c0,0,0.17,0.16,0.17,0.16l-0.22-0.12c-0.36-1.07-0.73-2.13-1.12-3.27
			c-0.6-0.26-1.29-0.55-2.2-0.94c-0.28-0.96-1.01-2.13-0.79-3.08c0.39-1.69,0.08-2.86-1.02-4.15c-0.6-0.7-0.65-1.87-0.92-2.84
			c-0.3-1.09-0.46-2.22-0.85-3.27c-0.75-2.05-0.62-4.42,0.38-6.83C198.47,314.61,198.2,313.66,196.97,313.23z"/>
		<path class="st2" d="M297.77,227.92c1.32,0.4,2.71-0.37,4.07,0.36c0.69,0.37,1.18-0.26,1.18-1.31c0-0.34-0.04-0.67-0.06-0.99
			c0.34,0,0.59-0.05,0.8,0.01c0.97,0.29,0.1,2.02,1.69,2.01c0.9,0,1.8,0.64,2.71,1c1-0.25,0.63-2.5,2.51-1.62
			c-0.27,0.6-0.53,1.2-0.77,1.74c0.12,0.21,0.17,0.4,0.25,0.42c1.58,0.24,2.94,1.45,4.67,1.06c0.48-0.11,1.18-0.28,1.46-0.04
			c1.7,1.46,3.33,0.49,4.99,0.01c1.41,0.45,1.66,1.79,2.24,2.89c0.79,1.52,1.33,3.05,2.85,4.28c1.61,1.29,2.08,3.64,2.56,5.73
			c0.11,0.48,0.1,0.99,0.12,1.27c0.72,1.45,3.23,1.9,1.73,4.18c-1.05-0.13-2.09-0.09-3.01-0.4c-4.52-1.51-9.25-1.98-13.89-2.85
			c-0.49-0.09-1.03-0.17-1.49-0.04c-2.07,0.59-3.99-0.05-5.8-0.52c-0.95-0.56-0.84-2.06-2.19-1.98c0,0,0.07,0.08,0.07,0.08
			c0.49-0.77,0.06-1.47-0.25-2.11c-1.26-2.6-2.59-5.16-3.86-7.74C299.46,231.55,298.63,229.73,297.77,227.92z M320.48,232.59
			c-0.01,0.11-0.02,0.23-0.03,0.34c0.39,0.05,0.78,0.09,1.18,0.14c0.01-0.13,0.02-0.27,0.04-0.4
			C321.27,232.64,320.88,232.62,320.48,232.59z"/>
		<path class="st2" d="M269.3,231.95c1.51-0.08,3.04-0.31,4.54-0.19c1.34,0.11,2.23-1.49,3.59-0.78c0.48-0.85,0.96-1.7,1.47-2.61
			c0.38,0.5,0.62,1.04,0.81,1.02c1.66-0.15,3.48,1.16,4.99-0.46c1.73-0.14,3.29-1.35,5.13-0.75c2,0.94,3.2,2.7,4.6,4.32
			c2.95,3.44,6.08,6.72,9.15,10.06c0.24,0.27,0.59,0.44,0.89,0.65c0,0-0.07-0.08-0.07-0.08c0.21,0.94,0.23,1.89-1.01,1.95
			c-1.63,0.09-3.28,0.1-4.89-0.09c-1.27-0.15-2.42-0.36-3.65,0.3c-0.58,0.31-1.45,0.18-2.18,0.12c-2.02-0.19-3.98-0.14-5.98,0.32
			c-1.69,0.39-3.48,0.4-5.23,0.44c-0.57,0.01-1.24-0.3-1.69-0.68c-0.67-0.56-1.35-1.21-1.73-1.98c-1.31-2.69-3.52-4.62-5.64-6.54
			C270.81,235.53,269.7,234.02,269.3,231.95z"/>
		<path class="st2" d="M253.79,240.36c2.32-0.93,4.72-0.9,7.02-0.12c1.9,0.64,4.02,0.68,5.68,2.01c2.74-0.1,4.59,1.87,6.83,2.94
			c0.53,0.25,0.94,0.73,1.58,1.24c-1.18,1.01-2.36,1.45-3.55,1.7c-3.58,0.74-7.17,1.6-10.8,1.97c-1.92,0.19-3.6,0.37-5.24,1.55
			c-1.18,0.85-2.65,1.33-4.3,1.18c-0.94-0.09-2.07,0.23-2.9,0.72c-4.78,2.87-10.19,4.29-15.17,6.81c-1.32-0.52-2.65-0.91-3.65-1.94
			c1.05-1.14,2.67-1.41,3.65-2.86c0.9-1.33,2.6-2.12,3.97-3.17c0.54,0.11,1.12,0.23,1.99,0.41c-0.13-0.71-0.23-1.24-0.37-2.03
			c1.05,0.14,2.01-0.04,2.3-1.23c0.24-0.07,0.49-0.23,0.72-0.2c4.99,0.5,9.83-0.72,14.79-1.27c-0.87-0.5-1.77-0.88-2.7-1.07
			c-2.7-0.55-5.42-1.03-8.13-1.53c0.37-0.46,0.65-1.07,1.13-1.34c0.51-0.28,1.62-0.06,1.75-0.37c0.84-2,2.11-0.31,3.24-0.47
			C252.32,242.33,253.05,241.34,253.79,240.36z"/>
		<path class="st2" d="M238.38,300.18c-0.44-0.84-0.98-1.38-0.94-1.88c0.26-3.29-0.92-6.49-0.45-9.81c0.15-1.04-0.63-2.18-0.74-3.29
			c-0.1-1.02-0.8-2.28,0.72-3c0.21-0.1,0.36-0.7,0.28-1c-0.65-2.54-0.42-5.34-2.06-7.6c-0.56-0.78-0.72-1.57-0.66-2.49
			c0.09-1.25,0.12-2.51,0.18-3.73c1.52-0.97,2.96-1.89,4.62-2.95c0.58,2.56,0.18,4.79-0.34,6.92c-0.57,2.39-0.51,4.75-0.51,7.15
			c0,1.23,0.54,2.47-0.2,3.72c-0.24,0.41,0.17,1.17,0.23,1.78c0.07,0.86,0.13,1.72,0.11,2.58c-0.01,0.62-0.37,1.31-0.19,1.83
			c0.56,1.64,0.43,3.21,0.01,4.84c-0.14,0.55,0.08,1.22,0.24,1.8C239.16,296.67,239.14,298.24,238.38,300.18z"/>
		<path class="st2" d="M249.65,370.58c-0.99,0.31-1.92,1.07-3.05,0.4c-0.47-4.6-0.93-9.19-1.4-13.79c1.17-0.49,1.49,0.42,1.51,1.04
			c0.13,3.3,1.7,6.26,2.1,9.49C248.94,368.69,249.36,369.63,249.65,370.58z"/>
		<path class="st2" d="M328.85,374.02c-0.19-1.87-0.43-3.74-0.55-5.62c-0.04-0.66,0.2-1.34,0.37-2.33c1.47,2.39,1.49,2.39,1.49,3.52
			c0,1.13-0.03,2.27-0.05,3.4C329.69,373.34,329.27,373.68,328.85,374.02z"/>
		<path class="st2" d="M245.07,368.9c-0.52-0.18-1.04-0.36-1.56-0.54c-0.65-1.38-0.94-2.82-0.61-4.41c1.05,0.53,1.07,1.59,1.37,2.49
			C244.54,367.26,244.81,368.08,245.07,368.9z"/>
		<path class="st2" d="M240.48,367.74c-1.82-0.66-1.86-0.75-0.92-2.14C240.2,366.18,240.72,366.8,240.48,367.74z"/>
		<path class="st1" d="M354.43,249.04c-0.02,0.11-0.04,0.23-0.06,0.34c-0.2-0.06-0.44-0.07-0.58-0.2c-0.07-0.06,0.04-0.33,0.07-0.51
			C354.05,248.8,354.24,248.92,354.43,249.04z"/>
		<path class="st0" d="M359.37,306.51c-0.07-3.9,0.63-7.35,0.38-10.91c-0.21-2.91,1.3-5.61,3.21-7.88c0.77-0.91,2.28-0.87,3.05,0.04
			c1.09,1.29,1.7,2.8,1.97,4.46c0.3,1.87,0.75,3.72,0.88,5.6c0.19,2.75,0.61,5.5,0.66,8.23c0.03,1.75-0.44,3.74-2.02,5.12
			c-1.12,0.98-1.73,2.48-3.31,3.04c-1.54,0.55-2.76,0.28-3.53-1.18C359.52,310.88,358.74,308.63,359.37,306.51z"/>
		<polygon class="st1" points="204.55,340.04 204.77,340.16 204.59,340 		"/>
		<path class="st0" d="M304.46,243.2c-0.3-0.22-0.64-0.39-0.89-0.65c-3.07-3.34-6.2-6.62-9.15-10.06c-1.39-1.62-2.59-3.38-4.6-4.32
			c-0.37-1.59-0.64-3.21-2.62-3.73c-0.34-0.09-0.61-0.77-0.77-1.23c-0.41-1.16-1.19-1.75-2.34-2.23c-1.92-0.81-2.33-3.87-0.88-5.44
			c0.57-0.61,1.45-0.92,2.04-0.39c1.48,1.34,3.4,2.03,4.7,3.69c2.47,3.14,5.21,6.07,7.83,9.09c0.85,1.8,1.69,3.62,2.57,5.42
			c1.27,2.59,2.61,5.15,3.86,7.74C304.52,241.73,304.95,242.43,304.46,243.2z"/>
		<path class="st2" d="M273.52,230.54c-0.25-1.3-0.1-1.55,0.99-1.58c0.2-0.01,0.53,0.15,0.57,0.29c0.04,0.18-0.11,0.45-0.26,0.62
			c-0.16,0.18-0.39,0.3-0.61,0.41C273.99,230.39,273.75,230.45,273.52,230.54z"/>
		<path class="st1" d="M320.48,232.59c0.39,0.03,0.79,0.05,1.18,0.08c-0.01,0.13-0.02,0.27-0.04,0.4c-0.39-0.05-0.78-0.09-1.18-0.14
			C320.46,232.82,320.47,232.71,320.48,232.59z"/>
		<path class="st2" d="M198.05,327.66c-0.36,0.24-0.6,0.48-0.89,0.55c-0.15,0.04-0.5-0.19-0.55-0.35c-0.14-0.57-0.23-1.16-0.25-1.75
			c0-0.14,0.3-0.38,0.49-0.42c0.19-0.03,0.55,0.08,0.61,0.22C197.71,326.45,197.85,327.02,198.05,327.66z"/>
		<path class="st2" d="M199.85,333.06c-1.52-1.39-1.81-2.04-1.12-2.57c0.08-0.06,0.21-0.11,0.31-0.1
			C199.95,330.55,200.13,331.12,199.85,333.06z"/>
		<path class="st2" d="M214.78,352.32c0.24,0.44,0.39,0.7,0.54,0.97c-0.27,0.12-0.54,0.3-0.82,0.34c-0.1,0.01-0.39-0.35-0.35-0.45
			C214.25,352.91,214.48,352.7,214.78,352.32z"/>
		<path class="st0" d="M242.94,371.25c-0.1-0.48-0.19-0.88-0.23-1.28c0-0.03,0.46-0.17,0.49-0.12c0.17,0.27,0.33,0.58,0.38,0.89
			C243.59,370.84,243.27,370.99,242.94,371.25z"/>
		<path class="st2" d="M202.87,338.01c0,0.08,0,0.16,0,0.24c-0.17-0.04-0.34-0.08-0.5-0.12c0.09-0.08,0.16-0.19,0.26-0.22
			C202.69,337.89,202.79,337.98,202.87,338.01z"/>
		<path class="st0" d="M240.83,249.52c-1.09-0.27-2.19-0.52-3.28-0.83c-0.59-0.17-1.21-0.35-1.71-0.68
			c-0.37-0.24-0.85-0.84-0.77-1.11c0.17-0.52,0.63-1.18,1.1-1.3c0.94-0.24,1.97-0.21,2.96-0.21c2.12-0.01,4.24,0.03,6.36,0.05
			c2.71,0.5,5.43,0.98,8.13,1.53c0.93,0.19,1.83,0.57,2.7,1.07c-4.96,0.54-9.8,1.77-14.79,1.27
			C241.32,249.29,241.07,249.45,240.83,249.52z"/>
		<path class="st2" d="M284.52,378.67c-0.46,0.15-0.71,0.33-0.89,0.27c-0.4-0.12-0.77-0.36-1.15-0.55c0.29-0.34,0.54-0.9,0.87-0.94
			c0.31-0.05,0.71,0.43,1.05,0.7C284.47,378.21,284.46,378.38,284.52,378.67z"/>
		<path class="st2" d="M288.51,377.61c0.19,0.09,0.37,0.18,0.56,0.27c-0.14,0.27-0.28,0.54-0.42,0.81
			c-0.14-0.17-0.37-0.33-0.41-0.52C288.21,378.01,288.4,377.81,288.51,377.61z"/>
		<path class="st2" d="M287.4,378.61c-0.06-0.03-0.14-0.06-0.22-0.1c0.07-0.11,0.15-0.22,0.22-0.34c0.08,0.07,0.16,0.14,0.24,0.21
			C287.56,378.46,287.48,378.53,287.4,378.61z"/>
		<path class="st2" d="M303.19,378.34c0.2-0.07,0.4-0.21,0.57-0.18c0.14,0.02,0.24,0.25,0.35,0.39c-0.19,0.07-0.4,0.21-0.58,0.19
			C303.41,378.72,303.3,378.48,303.19,378.34z"/>
	</g>
</g>
</svg>
